{"glyphs":{"0":{"ha":1174,"x_min":null,"x_max":null,"o":"m 586 1065 b 54 532 292 1065 54 826 b 586 0 54 238 292 0 b 1119 532 881 0 1119 238 b 586 1065 1119 825 882 1065 z m 826 532 b 586 293 826 400 719 293 b 347 532 454 293 347 400 b 586 772 347 665 454 772 b 826 532 721 772 826 665 z "},"1":{"ha":554,"x_min":null,"x_max":null,"o":"m 339 1065 l 128 1065 b 22 960 69 1065 22 1018 b 128 854 22 901 69 854 l 193 854 l 193 150 b 339 4 193 69 258 4 b 485 150 419 4 485 69 l 485 919 b 339 1065 485 1000 419 1065 z "},"2":{"ha":925,"x_min":null,"x_max":null,"o":"m 865 713 b 460 1065 865 919 699 1065 b 124 915 274 1065 189 988 b 93 778 89 878 78 826 b 197 681 108 729 147 693 b 336 725 247 669 300 686 b 468 779 364 757 414 779 b 553 713 486 779 553 769 b 56 192 553 535 56 535 b 244 4 56 88 140 4 l 719 4 b 865 150 800 4 865 69 b 719 296 865 231 800 296 l 426 296 b 865 713 426 392 865 435 z "},"3":{"ha":897,"x_min":null,"x_max":null,"o":"m 835 713 b 429 1065 835 919 668 1065 b 97 919 244 1065 161 990 b 67 775 63 881 50 825 b 169 681 82 726 119 692 b 306 725 219 669 271 686 b 429 772 335 757 376 772 b 543 713 449 772 543 769 b 410 664 543 688 533 669 b 285 535 340 661 285 604 b 411 404 285 464 340 407 b 543 357 533 400 543 383 b 429 296 543 299 449 296 b 307 343 376 296 335 313 b 196 392 276 375 236 393 b 68 304 139 389 90 356 b 93 153 47 253 57 194 b 429 4 158 81 243 4 b 835 357 668 4 835 149 b 750 528 835 438 792 493 b 835 713 794 564 835 622 z "},"4":{"ha":1060,"x_min":null,"x_max":null,"o":"m 878 919 b 725 1065 878 1006 808 1065 b 613 1021 683 1067 643 1051 l 78 511 b 35 404 49 483 33 444 b 181 253 35 358 64 253 l 586 253 l 586 150 b 732 4 586 69 651 4 b 878 150 813 4 878 69 l 878 253 b 1015 399 954 258 1015 321 b 878 544 1015 476 954 540 z m 586 656 l 586 546 l 465 546 z "},"5":{"ha":897,"x_min":null,"x_max":null,"o":"m 432 675 l 358 674 l 358 726 b 357 746 358 732 358 739 l 358 746 l 358 772 l 629 772 b 779 914 710 772 778 836 b 739 1021 781 954 767 992 b 633 1065 711 1050 674 1065 l 254 1065 b 65 876 150 1065 65 981 l 65 568 b 213 421 65 486 131 421 b 406 421 269 421 343 421 b 549 357 549 421 549 389 b 436 296 549 299 454 296 b 313 344 382 296 340 313 b 175 388 278 382 225 399 b 72 293 126 376 88 342 b 103 150 57 243 68 188 b 436 4 167 79 250 4 b 842 357 675 4 842 149 b 432 675 842 606 651 675 z "},"6":{"ha":929,"x_min":null,"x_max":null,"o":"m 508 726 b 396 713 469 726 433 721 b 472 790 396 747 424 790 b 653 735 538 790 538 735 b 806 867 676 735 806 753 b 508 1065 806 890 786 1065 b 57 524 367 1065 57 949 b 468 4 57 265 199 4 b 872 357 706 4 872 149 b 508 726 872 629 676 726 z m 581 374 b 468 296 581 347 551 296 b 364 400 408 296 379 357 b 506 453 397 426 444 451 b 581 374 561 453 581 404 z "},"7":{"ha":932,"x_min":null,"x_max":null,"o":"m 763 1065 l 208 1065 b 63 919 128 1065 63 1000 b 208 772 63 838 128 772 l 496 772 b 303 218 431 646 303 376 l 303 150 b 450 4 303 69 369 4 b 596 150 531 4 596 69 l 596 215 b 872 822 596 418 850 790 b 908 919 896 849 908 883 b 763 1065 908 1000 843 1065 z "},"8":{"ha":900,"x_min":null,"x_max":null,"o":"m 736 535 b 825 758 776 578 828 653 b 450 1064 821 965 628 1061 b 61 750 260 1064 61 961 b 167 528 61 639 121 567 b 61 308 122 482 61 403 b 449 3 61 99 264 3 b 839 315 638 3 839 104 b 736 535 839 425 782 496 z m 450 663 b 354 713 410 663 354 678 b 450 775 354 760 413 775 b 547 713 488 775 547 760 b 450 663 547 678 490 663 z m 547 350 b 535 324 547 339 543 331 b 443 297 517 306 481 296 b 354 350 413 299 354 311 b 450 404 354 390 411 404 b 547 350 489 404 547 390 z "},"9":{"ha":929,"x_min":null,"x_max":null,"o":"m 419 343 b 532 357 458 343 496 347 b 456 278 532 321 506 278 b 275 333 390 278 390 333 b 124 201 251 333 124 317 b 419 4 124 178 142 4 b 871 544 561 4 871 121 b 460 1065 871 803 731 1065 b 56 713 222 1065 56 919 b 419 343 56 439 251 343 z m 349 694 b 461 772 349 721 376 772 b 564 668 519 772 550 711 b 422 617 531 642 483 617 b 349 694 368 617 349 664 z "},"¨":{"ha":732,"x_min":null,"x_max":null,"o":"m 69 972 l 69 0 l 663 0 l 663 972 z m 108 944 l 624 944 l 365 515 z m 383 486 l 635 906 l 635 65 z m 349 486 l 99 68 l 99 903 z m 367 457 l 624 29 l 110 29 z "},"¬":{"ha":732,"x_min":null,"x_max":null,"o":"m 69 972 l 69 0 l 663 0 l 663 972 z m 108 944 l 624 944 l 365 515 z m 383 486 l 635 906 l 635 65 z m 349 486 l 99 68 l 99 903 z m 367 457 l 624 29 l 110 29 z "},"ð":{"ha":732,"x_min":null,"x_max":null,"o":"m 69 972 l 69 0 l 663 0 l 663 972 z m 108 944 l 624 944 l 365 515 z m 383 486 l 635 906 l 635 65 z m 349 486 l 99 68 l 99 903 z m 367 457 l 624 29 l 110 29 z "},"―":{"ha":732,"x_min":null,"x_max":null,"o":"m 69 972 l 69 0 l 663 0 l 663 972 z m 108 944 l 624 944 l 365 515 z m 383 486 l 635 906 l 635 65 z m 349 486 l 99 68 l 99 903 z m 367 457 l 624 29 l 110 29 z "},"‖":{"ha":732,"x_min":null,"x_max":null,"o":"m 69 972 l 69 0 l 663 0 l 663 972 z m 108 944 l 624 944 l 365 515 z m 383 486 l 635 906 l 635 65 z m 349 486 l 99 68 l 99 903 z m 367 457 l 624 29 l 110 29 z "},"‗":{"ha":732,"x_min":null,"x_max":null,"o":"m 69 972 l 69 0 l 663 0 l 663 972 z m 108 944 l 624 944 l 365 515 z m 383 486 l 635 906 l 635 65 z m 349 486 l 99 68 l 99 903 z m 367 457 l 624 29 l 110 29 z "},"‛":{"ha":732,"x_min":null,"x_max":null,"o":"m 69 972 l 69 0 l 663 0 l 663 972 z m 108 944 l 624 944 l 365 515 z m 383 486 l 635 906 l 635 65 z m 349 486 l 99 68 l 99 903 z m 367 457 l 624 29 l 110 29 z "},"\u0000":{"ha":0,"x_min":null,"x_max":null,"o":""},"\r":{"ha":0,"x_min":null,"x_max":null,"o":""}," ":{"ha":375,"x_min":null,"x_max":null,"o":""},"\n":{"ha":0,"x_min":null,"x_max":null,"o":""},"!":{"ha":429,"x_min":null,"x_max":null,"o":"m 214 1117 b 68 969 133 1117 68 1050 l 68 201 b 214 54 68 121 133 54 b 361 201 294 54 361 121 l 361 969 b 214 1117 361 1050 294 1117 z m 214 -246 b 354 -106 292 -246 354 -183 b 214 35 354 -28 292 35 b 74 -106 138 35 74 -28 b 214 -246 74 -183 138 -246 z "},"\"":{"ha":560,"x_min":null,"x_max":null,"o":"m 492 1038 b 432 1065 478 1056 456 1065 l 385 1065 b 326 1040 363 1065 342 1057 b 307 979 311 1024 304 1001 l 318 860 b 396 789 321 819 356 789 l 414 789 b 492 856 453 789 486 817 l 510 975 b 492 1038 514 997 507 1021 z m 126 1065 b 68 1040 104 1065 83 1057 b 47 979 53 1024 46 1001 l 58 860 b 138 789 63 819 96 789 l 156 789 b 233 856 194 789 228 817 l 251 975 b 233 1038 256 997 249 1021 b 174 1065 218 1056 197 1065 z "},"#":{"ha":907,"x_min":null,"x_max":null,"o":"m 747 401 l 690 401 l 690 617 l 747 617 b 851 722 804 617 851 664 b 747 828 851 781 804 828 l 690 828 l 690 935 b 586 1040 690 993 643 1040 b 481 935 528 1040 481 993 l 481 828 l 426 828 l 426 938 b 321 1043 426 996 379 1043 b 215 938 263 1043 215 996 l 215 828 l 160 828 b 54 722 101 828 54 781 b 160 617 54 664 101 617 l 215 617 l 215 401 l 160 401 b 54 296 101 401 54 354 b 160 190 54 238 101 190 l 215 190 l 215 82 b 321 -22 215 25 263 -22 b 426 82 379 -22 426 25 l 426 190 l 481 190 l 481 81 b 586 -25 481 22 528 -25 b 690 81 643 -25 690 22 l 690 190 l 747 190 b 851 296 804 190 851 238 b 747 401 851 354 804 401 z m 481 401 l 426 401 l 426 617 l 481 617 z "},"$":{"ha":1000,"x_min":null,"x_max":null,"o":"m 950 313 b 608 600 950 550 771 586 l 608 703 b 726 667 642 683 678 667 l 729 668 b 832 763 779 679 817 715 b 804 901 849 811 838 863 b 608 1029 764 949 700 1001 l 608 1113 b 503 1218 608 1171 561 1218 b 399 1113 446 1218 399 1171 l 399 1047 b 57 699 194 1024 57 886 b 399 429 57 496 236 454 l 399 292 b 207 411 292 324 315 411 b 89 242 117 411 72 314 b 399 -7 92 225 140 33 l 399 -57 b 503 -162 399 -115 446 -162 b 608 -57 561 -162 608 -115 l 608 -7 b 950 313 904 36 950 247 z m 350 699 b 399 750 350 726 372 742 l 399 631 b 350 699 368 644 350 664 z m 608 283 l 608 388 b 657 326 639 374 657 356 b 608 283 657 301 636 289 z "},"%":{"ha":1633,"x_min":null,"x_max":null,"o":"m 1025 1060 b 986 1067 1013 1064 999 1067 b 889 1000 943 1067 904 1040 l 542 146 l 542 144 b 543 64 532 118 532 90 b 640 1 561 25 599 1 b 682 11 654 1 669 4 b 738 68 708 22 728 43 l 1085 924 b 1025 1060 1106 978 1079 1039 z m 700 739 b 374 1067 700 919 556 1067 b 46 739 192 1067 46 921 b 374 413 46 558 193 413 b 700 739 554 413 700 558 z m 374 621 b 254 739 307 621 254 674 b 374 858 254 806 307 858 b 492 739 467 858 492 764 b 374 621 492 674 439 621 z m 1260 665 b 932 338 1079 665 932 519 b 1260 11 932 157 1079 11 b 1588 338 1440 11 1588 157 b 1260 665 1588 517 1440 665 z m 1260 219 b 1140 338 1194 219 1140 272 b 1260 457 1140 404 1194 457 b 1379 338 1325 457 1379 403 b 1260 219 1379 272 1325 219 z "},"&":{"ha":1074,"x_min":null,"x_max":null,"o":"m 969 579 b 857 604 938 603 896 613 b 749 517 801 593 776 564 b 740 525 746 519 743 522 b 813 733 774 568 813 638 b 449 1040 813 915 672 1033 l 446 1040 b 79 725 217 1033 79 875 b 167 506 79 618 128 546 b 58 283 122 461 58 381 b 446 -21 58 175 108 -10 l 447 -21 b 689 50 529 -21 611 3 b 815 -22 715 6 763 -22 b 935 39 863 -22 908 0 b 954 171 963 78 971 125 b 919 263 944 201 932 232 b 1007 392 951 303 981 346 b 969 579 1044 456 1028 536 z m 447 747 b 544 688 494 747 544 725 b 447 642 544 671 544 650 b 351 688 351 650 351 671 b 447 747 351 747 443 747 z m 447 272 b 351 314 401 272 351 285 b 447 379 351 357 383 379 b 574 317 496 379 538 358 b 447 272 531 288 488 272 z "},"'":{"ha":300,"x_min":null,"x_max":null,"o":"m 233 1038 b 174 1065 218 1056 197 1065 l 126 1065 b 68 1040 104 1065 83 1057 b 47 979 53 1024 46 1001 l 58 860 b 138 789 63 819 96 789 l 156 789 b 233 856 194 789 228 817 l 251 975 b 233 1038 256 997 249 1021 z "},"(":{"ha":631,"x_min":null,"x_max":null,"o":"m 476 -17 l 474 -15 b 353 408 464 -10 353 64 b 471 831 353 756 458 824 l 485 838 b 561 933 513 851 561 875 b 456 1039 561 992 514 1039 l 449 1039 b 250 935 444 1038 346 1022 b 60 408 163 857 60 701 b 250 -122 60 111 163 -44 b 450 -222 347 -208 446 -221 l 456 -222 b 561 -117 514 -222 561 -175 b 476 -17 561 -60 508 -33 z "},")":{"ha":631,"x_min":null,"x_max":null,"o":"m 381 935 b 182 1039 283 1022 186 1038 l 175 1039 b 69 933 117 1039 69 992 b 146 838 69 875 117 851 l 160 831 b 278 408 171 825 278 758 b 157 -15 278 68 169 -7 l 153 -17 b 69 -117 122 -33 69 -60 b 175 -222 69 -175 117 -222 l 181 -222 b 381 -122 185 -221 283 -208 b 571 408 467 -44 571 111 b 381 935 571 701 468 857 z "},"*":{"ha":435,"x_min":null,"x_max":null,"o":"m 388 869 b 360 928 388 893 376 914 b 338 989 360 951 356 971 b 276 1011 321 1006 297 1013 b 217 1039 263 1028 240 1039 b 158 1011 193 1039 172 1028 b 97 989 136 1013 113 1006 b 75 928 79 972 75 951 b 47 869 58 914 47 893 b 75 810 47 846 58 824 b 97 749 74 789 81 765 b 158 726 113 732 136 725 b 217 699 172 710 193 699 b 276 726 240 699 263 710 b 338 749 297 725 321 732 b 358 810 354 765 361 788 b 388 869 376 824 388 846 z "},"+":{"ha":685,"x_min":null,"x_max":null,"o":"m 535 383 l 447 383 l 447 472 b 342 578 447 531 400 578 b 236 472 283 578 236 531 l 236 383 l 150 383 b 44 278 92 383 44 336 b 150 174 44 221 92 174 l 236 174 l 236 88 b 342 -18 236 29 283 -18 b 447 88 400 -18 447 29 l 447 174 l 535 174 b 639 278 592 174 639 221 b 535 383 639 336 592 383 z "},",":{"ha":372,"x_min":null,"x_max":null,"o":"m 186 257 b 46 118 108 257 46 194 b 142 -15 46 56 86 3 b 147 -51 140 -28 142 -40 b 199 -89 156 -72 175 -86 b 257 -64 222 -89 242 -83 b 326 118 282 -31 326 38 b 186 257 326 194 264 257 z "},"-":{"ha":676,"x_min":null,"x_max":null,"o":"m 525 458 l 150 458 b 44 354 92 458 44 411 b 150 249 44 296 92 249 l 525 249 b 631 354 583 249 631 296 b 525 458 631 411 583 458 z "},".":{"ha":372,"x_min":null,"x_max":null,"o":"m 186 257 b 46 118 108 257 46 194 b 186 -22 46 40 108 -22 b 326 118 264 -22 326 40 b 186 257 326 194 264 257 z "},"/":{"ha":618,"x_min":null,"x_max":null,"o":"m 518 1032 b 481 1039 506 1036 493 1039 b 382 972 439 1039 399 1013 l 35 117 b 38 36 25 90 25 61 b 96 -19 49 10 69 -10 b 133 -26 107 -25 121 -26 b 231 40 178 -26 215 -1 l 578 896 b 518 1032 599 950 572 1011 z "},":":{"ha":392,"x_min":null,"x_max":null,"o":"m 196 475 b 336 615 274 475 336 538 b 196 756 336 693 274 756 b 56 615 118 756 56 693 b 196 475 56 538 118 475 z m 196 257 b 56 117 118 257 56 194 b 196 -22 56 40 118 -22 b 336 117 274 -22 336 40 b 196 257 336 194 274 257 z "},";":{"ha":392,"x_min":null,"x_max":null,"o":"m 196 475 b 336 615 274 475 336 538 b 196 756 336 693 274 756 b 56 615 118 756 56 693 b 196 475 56 538 118 475 z m 196 257 b 56 118 118 257 56 194 b 151 -15 56 56 96 3 b 157 -51 150 -28 151 -40 b 208 -89 165 -72 185 -86 b 267 -64 232 -89 251 -83 b 336 118 292 -31 336 38 b 196 257 336 194 274 257 z "},"<":{"ha":799,"x_min":null,"x_max":null,"o":"m 697 397 l 336 522 l 697 646 b 726 792 746 679 758 744 b 638 839 706 822 672 839 b 579 821 618 839 597 833 l 90 611 b 44 522 61 592 44 558 b 90 433 44 486 61 453 l 579 222 b 638 206 597 211 618 206 b 726 251 672 206 706 221 b 697 397 758 300 746 365 z "},"=":{"ha":701,"x_min":null,"x_max":null,"o":"m 158 425 l 543 425 b 647 531 600 425 647 472 b 543 636 647 589 600 636 l 158 636 b 53 531 100 636 53 589 b 158 425 53 472 100 425 z m 543 383 l 158 383 b 53 278 100 383 53 336 b 158 174 53 221 100 174 l 543 174 b 647 278 600 174 647 221 b 543 383 647 336 600 383 z "},">":{"ha":799,"x_min":null,"x_max":null,"o":"m 707 611 l 218 821 b 160 839 200 833 181 839 b 72 792 126 839 92 822 b 100 646 40 744 53 679 l 463 522 l 100 397 b 72 251 53 365 40 300 b 160 206 93 221 126 206 b 218 222 181 206 200 211 l 707 433 b 753 522 736 453 754 486 b 707 611 754 558 736 592 z "},"?":{"ha":854,"x_min":null,"x_max":null,"o":"m 401 1117 b 65 967 215 1117 131 1039 b 36 828 32 929 21 876 b 139 732 51 779 90 744 b 278 776 190 721 243 738 b 401 824 307 808 349 824 b 515 764 421 824 515 821 b 408 700 515 732 515 706 l 374 700 b 226 553 293 700 226 633 l 226 201 b 374 54 226 121 293 54 b 519 201 454 54 519 121 l 519 453 b 807 764 706 479 807 588 b 401 1117 807 971 640 1117 z m 381 -246 b 521 -106 458 -246 521 -183 b 381 35 521 -28 458 35 b 240 -106 303 35 240 -28 b 381 -246 240 -183 303 -246 z "},"@":{"ha":1322,"x_min":null,"x_max":null,"o":"m 700 1128 b 56 482 297 1128 56 800 b 660 -122 56 150 326 -122 b 779 -12 735 -122 779 -67 b 660 90 779 54 721 90 b 268 482 444 90 268 267 b 700 915 268 692 419 915 b 1051 482 1026 915 1051 583 b 993 279 1051 332 1006 279 b 969 363 988 281 969 304 l 953 690 b 843 818 953 765 907 818 b 760 786 813 818 783 806 b 638 810 721 801 679 810 b 307 479 456 810 307 661 b 638 147 307 296 456 147 b 763 172 681 147 724 156 b 967 74 807 115 860 74 b 1264 482 1153 74 1264 226 b 700 1128 1264 833 1081 1128 z m 717 467 b 638 399 711 428 678 399 b 558 479 594 399 558 435 b 638 558 558 522 594 558 b 718 481 683 558 714 524 b 717 467 717 476 717 472 z "},"A":{"ha":936,"x_min":null,"x_max":null,"o":"m 649 90 b 783 0 672 33 726 0 b 840 11 803 0 822 4 b 919 203 914 42 950 128 l 599 975 b 464 1065 576 1029 524 1065 b 328 974 404 1065 350 1029 l 18 201 b 99 11 -12 126 24 40 b 153 0 117 4 135 0 b 289 92 214 0 267 36 l 319 167 l 617 167 z m 418 460 l 467 615 l 514 460 z "},"B":{"ha":967,"x_min":null,"x_max":null,"o":"m 942 365 b 825 633 942 467 899 564 b 847 750 840 669 847 710 b 536 1061 847 922 708 1061 l 253 1061 b 64 874 149 1061 64 978 l 64 146 b 210 0 64 65 129 0 l 576 0 b 942 365 778 0 942 164 z m 357 769 l 528 769 b 561 732 556 769 561 743 b 528 696 561 722 551 696 l 357 696 z m 576 293 l 357 293 l 357 438 l 576 438 b 649 365 617 438 649 406 b 576 293 649 325 617 293 z "},"C":{"ha":981,"x_min":null,"x_max":null,"o":"m 918 169 b 904 376 971 231 965 322 b 799 413 875 401 838 415 b 697 363 760 410 724 392 b 557 294 649 307 622 294 b 318 533 425 294 318 401 b 557 774 318 667 425 774 b 692 718 597 774 628 769 b 785 685 718 696 751 685 b 899 739 826 685 869 703 b 876 946 949 803 939 894 b 557 1067 772 1031 676 1067 b 25 533 263 1067 25 828 b 557 1 25 239 263 1 b 918 169 715 1 814 54 z "},"D":{"ha":926,"x_min":null,"x_max":null,"o":"m 897 531 b 424 1061 897 817 726 1061 l 235 1061 b 65 892 142 1061 65 985 l 65 113 b 178 0 65 50 115 0 l 375 0 b 697 103 451 0 596 26 b 897 531 789 171 897 300 z m 604 531 b 522 338 604 442 578 378 b 375 293 474 301 390 293 l 358 293 l 358 769 l 424 769 b 604 531 478 769 604 746 z "},"E":{"ha":903,"x_min":null,"x_max":null,"o":"m 728 769 b 874 915 808 769 874 835 b 728 1061 874 996 808 1061 l 253 1061 b 64 874 149 1061 64 978 l 64 146 b 210 0 64 65 129 0 l 728 0 b 874 146 808 0 874 65 b 728 293 874 226 808 293 l 357 293 l 357 385 l 608 385 b 756 531 689 385 756 450 b 608 676 756 611 689 676 l 357 676 l 357 769 z "},"F":{"ha":878,"x_min":null,"x_max":null,"o":"m 357 146 l 357 385 l 608 385 b 756 531 689 385 756 450 b 608 676 756 611 689 676 l 357 676 l 357 769 l 728 769 b 874 915 808 769 874 835 b 728 1061 874 996 808 1061 l 253 1061 b 64 874 149 1061 64 976 l 64 146 b 210 0 64 65 129 0 b 357 146 290 0 357 65 z "},"G":{"ha":999,"x_min":null,"x_max":null,"o":"m 918 169 b 954 278 943 199 957 239 l 954 533 b 808 681 954 614 889 681 l 563 681 b 417 533 482 681 417 614 b 563 388 417 453 482 388 l 661 388 l 661 326 b 557 294 632 301 606 294 b 318 533 425 294 318 401 b 557 774 318 667 425 774 b 692 718 597 774 628 769 b 785 685 719 696 753 685 b 899 739 828 685 869 703 b 929 847 922 769 933 808 b 876 946 926 886 907 921 b 557 1067 772 1031 676 1067 b 25 533 263 1067 25 828 b 557 1 25 239 263 1 b 918 169 713 1 817 54 z "},"H":{"ha":968,"x_min":null,"x_max":null,"o":"m 903 915 b 756 1061 903 996 836 1061 b 610 915 675 1061 610 996 l 610 676 l 358 676 l 358 915 b 211 1061 358 996 292 1061 b 65 915 131 1061 65 996 l 65 146 b 211 0 65 65 131 0 b 358 146 292 0 358 65 l 358 385 l 610 385 l 610 146 b 756 0 610 65 675 0 b 903 146 836 0 903 65 z "},"I":{"ha":424,"x_min":null,"x_max":null,"o":"m 211 0 b 358 146 292 0 358 65 l 358 915 b 211 1061 358 996 292 1061 b 65 915 131 1061 65 996 l 65 146 b 211 0 65 65 131 0 z "},"J":{"ha":756,"x_min":null,"x_max":null,"o":"m 601 106 b 699 401 700 213 701 357 l 699 915 b 557 1065 699 996 635 1063 b 451 1024 517 1067 479 1051 b 407 919 422 996 407 958 l 407 397 l 406 392 l 407 385 b 386 304 408 364 403 321 b 343 293 378 294 358 293 b 299 338 333 293 313 293 b 153 447 279 403 219 447 b 39 392 108 446 67 426 b 8 268 11 357 0 313 b 343 0 43 93 161 0 b 601 106 476 0 557 57 z "},"K":{"ha":850,"x_min":null,"x_max":null,"o":"m 821 128 b 792 236 826 167 815 206 l 544 554 l 785 817 b 775 1024 839 876 835 969 b 676 1061 747 1049 711 1061 b 568 1014 636 1061 597 1046 l 358 783 l 358 915 b 211 1061 358 996 292 1061 b 65 915 131 1061 65 996 l 65 146 b 211 0 65 65 131 0 b 358 146 292 0 358 65 l 358 317 l 561 57 b 676 0 589 21 631 0 b 821 128 750 0 813 54 z "},"L":{"ha":872,"x_min":null,"x_max":null,"o":"m 728 293 l 357 293 l 357 915 b 210 1061 357 996 290 1061 b 64 915 129 1061 64 996 l 64 189 b 253 0 64 85 149 0 l 728 0 b 874 146 808 0 874 65 b 728 293 874 226 808 293 z "},"M":{"ha":1164,"x_min":null,"x_max":null,"o":"m 953 1061 b 819 978 878 1061 832 1007 l 582 483 l 343 978 b 207 1061 324 1018 278 1061 b 64 914 147 1061 64 1006 l 64 144 b 210 0 68 50 140 1 b 357 144 281 0 353 50 l 357 343 b 453 81 421 168 449 89 b 589 0 479 26 531 0 b 714 81 642 3 690 35 b 806 344 721 94 753 176 l 806 144 b 951 0 808 50 882 1 b 1097 144 1021 0 1094 50 l 1097 914 b 953 1061 1097 1007 1025 1061 z "},"N":{"ha":954,"x_min":null,"x_max":null,"o":"m 743 1061 b 596 917 672 1061 600 1011 l 596 558 l 338 990 b 207 1061 317 1025 272 1061 b 65 915 139 1061 65 1006 l 65 146 b 211 0 65 65 131 0 b 358 146 292 0 358 65 l 358 464 l 617 72 b 753 0 633 39 678 0 b 889 147 808 0 889 46 l 889 917 b 743 1061 885 1011 813 1061 z "},"O":{"ha":1108,"x_min":null,"x_max":null,"o":"m 554 1067 b 26 536 203 1056 28 796 b 554 1 25 274 201 13 b 1081 533 906 10 1081 271 b 554 1067 1081 796 906 1058 z m 794 533 b 554 297 792 376 674 297 b 314 533 436 297 317 376 b 554 769 315 690 435 769 b 794 533 674 769 794 690 z "},"P":{"ha":932,"x_min":null,"x_max":null,"o":"m 551 1065 l 211 1065 b 65 919 131 1065 65 1000 l 65 146 b 211 0 65 65 131 0 b 358 146 292 0 358 65 l 358 335 l 551 335 b 917 700 753 335 917 499 b 551 1065 917 901 753 1065 z m 624 700 b 551 626 624 660 592 626 l 358 626 l 358 772 l 551 772 b 624 700 592 772 624 740 z "},"Q":{"ha":1111,"x_min":null,"x_max":null,"o":"m 949 172 b 1081 533 1038 272 1081 403 b 554 1067 1081 796 906 1058 b 26 536 203 1056 28 796 b 554 1 25 274 201 13 b 701 22 607 3 657 10 l 729 -28 b 846 -85 758 -65 801 -85 b 933 -56 876 -85 907 -75 b 963 150 999 -7 1011 86 z m 314 533 b 554 769 315 690 435 769 b 794 533 674 769 794 690 b 786 469 794 511 790 489 l 774 490 b 657 549 744 529 701 549 b 569 519 626 549 596 539 b 540 314 504 469 492 378 l 550 297 b 314 533 433 300 317 378 z "},"R":{"ha":949,"x_min":null,"x_max":null,"o":"m 358 146 l 358 335 l 400 335 l 614 57 b 729 0 642 21 685 0 b 819 31 763 0 793 11 b 844 236 883 81 894 172 l 733 383 b 917 700 844 447 917 568 b 551 1065 917 901 753 1065 l 211 1065 b 65 919 131 1065 65 1000 l 65 146 b 211 0 65 65 131 0 b 358 146 292 0 358 65 z m 551 772 b 624 700 592 772 624 740 b 551 626 624 660 592 626 l 358 626 l 358 772 z "},"S":{"ha":944,"x_min":null,"x_max":null,"o":"m 325 714 b 438 774 325 771 419 774 b 701 682 547 774 588 682 l 704 683 b 807 779 754 694 792 731 b 779 917 824 826 813 878 b 438 1067 719 985 613 1067 b 32 714 199 1067 32 921 b 632 342 32 344 632 508 b 472 294 632 286 528 294 b 182 426 249 294 317 426 b 64 257 92 426 47 329 b 472 1 68 238 126 1 b 925 328 868 1 925 256 b 325 714 925 764 325 519 z "},"T":{"ha":897,"x_min":null,"x_max":null,"o":"m 594 769 l 751 769 b 899 915 832 769 899 835 b 751 1061 899 996 832 1061 l 144 1061 b -1 915 64 1061 -1 996 b 144 769 -1 835 64 769 l 303 769 l 303 146 b 449 0 303 65 368 0 b 594 146 529 0 594 65 z "},"U":{"ha":868,"x_min":null,"x_max":null,"o":"m 811 915 b 665 1061 811 996 746 1061 b 519 915 585 1061 519 996 l 519 379 b 433 293 519 318 494 293 b 347 379 388 293 347 333 l 347 915 b 200 1061 347 996 281 1061 b 54 915 119 1061 54 996 l 54 379 b 433 0 54 172 226 0 b 811 379 658 0 811 156 z "},"V":{"ha":935,"x_min":null,"x_max":null,"o":"m 782 1065 b 647 974 724 1065 669 1031 l 469 533 l 288 975 b 151 1065 264 1031 208 1065 b 17 975 92 1065 40 1029 b 17 863 1 939 1 899 l 336 90 b 472 0 360 36 413 0 l 474 0 b 607 92 532 0 585 36 l 918 864 b 917 976 933 900 932 940 b 782 1065 893 1031 842 1065 z "},"W":{"ha":1425,"x_min":null,"x_max":null,"o":"m 1271 1065 b 1136 974 1214 1065 1160 1031 l 971 563 l 829 969 b 692 1065 817 1003 792 1065 b 551 958 625 1065 569 1024 l 446 590 l 288 975 b 151 1065 264 1031 208 1065 b 17 975 92 1065 40 1029 b 17 863 1 939 1 899 l 336 90 b 481 0 363 31 417 0 b 613 106 542 4 596 46 l 706 435 l 824 99 b 958 0 843 40 897 1 l 961 0 b 1097 92 1021 0 1075 36 l 1408 864 b 1407 976 1422 900 1422 940 b 1271 1065 1385 1031 1329 1065 z "},"X":{"ha":953,"x_min":null,"x_max":null,"o":"m 869 1031 b 779 1063 843 1051 811 1063 b 664 1006 736 1063 693 1043 l 476 768 l 289 1006 b 192 1061 265 1036 231 1056 b 83 1031 153 1065 114 1054 b 29 933 53 1006 33 971 b 60 825 24 894 35 856 l 290 531 l 60 236 b 83 32 10 174 21 81 b 174 0 110 11 142 0 b 289 56 219 0 261 21 l 476 294 l 664 56 b 779 0 692 21 733 0 b 869 32 811 0 843 11 b 893 236 932 81 943 174 l 663 531 l 893 825 b 869 1031 943 889 932 981 z "},"Y":{"ha":897,"x_min":null,"x_max":null,"o":"m 751 1060 b 636 1003 708 1060 665 1040 l 447 764 l 261 1003 b 164 1058 238 1033 203 1053 b 57 1028 125 1063 88 1053 b 1 931 25 1004 6 969 b 31 824 -4 892 7 854 l 301 476 l 301 144 b 447 -3 301 64 367 -3 b 593 144 528 -3 593 64 l 593 476 l 865 822 b 896 931 890 853 900 892 b 751 1060 888 1004 825 1060 z "},"Z":{"ha":893,"x_min":null,"x_max":null,"o":"m 719 286 l 472 286 l 829 813 b 865 908 853 839 865 872 b 719 1054 865 989 800 1054 l 165 1054 b 19 908 85 1054 19 989 b 165 763 19 828 85 763 l 442 763 l 85 235 b 49 139 61 208 49 175 b 190 -7 49 60 111 -6 l 719 -7 b 865 139 800 -7 865 58 b 719 286 865 219 800 286 z "},"[":{"ha":531,"x_min":null,"x_max":null,"o":"m 381 -11 l 361 -11 l 361 828 l 381 828 b 486 933 439 828 486 875 b 381 1039 486 992 439 1039 l 214 1039 b 68 893 133 1039 68 974 l 68 -76 b 214 -222 68 -157 133 -222 l 381 -222 b 486 -117 439 -222 486 -175 b 381 -11 486 -58 439 -11 z "},"\\":{"ha":618,"x_min":null,"x_max":null,"o":"m 582 117 l 236 971 b 136 1039 219 1013 178 1039 b 99 1032 124 1039 111 1036 b 39 894 44 1011 18 950 l 386 40 b 485 -26 401 -1 442 -26 b 522 -19 497 -26 510 -25 b 581 36 549 -10 569 10 b 582 117 592 61 593 90 z "},"]":{"ha":531,"x_min":null,"x_max":null,"o":"m 315 1039 l 150 1039 b 44 933 92 1039 44 992 b 150 828 44 875 92 828 l 169 828 l 169 -11 l 150 -11 b 44 -117 92 -11 44 -58 b 150 -222 44 -175 92 -222 l 315 -222 b 463 -76 396 -222 463 -157 l 463 893 b 315 1039 463 974 396 1039 z "},"^":{"ha":600,"x_min":null,"x_max":null,"o":"m 515 668 b 539 785 554 694 564 747 l 371 1175 b 300 1213 356 1199 329 1213 b 229 1175 271 1213 244 1199 l 61 785 b 47 739 51 771 47 754 b 131 654 47 692 83 654 b 201 692 158 654 185 667 l 300 979 l 399 692 b 469 654 415 667 442 654 b 515 668 485 654 501 658 z "},"_":{"ha":588,"x_min":null,"x_max":null,"o":"m 486 31 l 101 31 b -4 -75 43 31 -4 -17 b 101 -181 -4 -133 43 -181 l 486 -181 b 590 -75 543 -181 590 -133 b 486 31 590 -17 543 31 z "},"a":{"ha":844,"x_min":null,"x_max":null,"o":"m 647 767 b 553 729 611 767 578 753 b 407 758 507 749 457 758 b 28 378 199 758 28 588 b 407 -1 28 169 199 -1 b 560 31 460 -1 511 10 b 647 -1 583 10 615 -1 b 788 138 725 -1 788 61 l 788 628 b 647 767 788 704 725 767 z m 407 278 b 307 378 351 278 307 322 b 407 479 307 433 351 479 b 508 378 428 479 508 461 b 407 278 508 322 463 278 z "},"b":{"ha":849,"x_min":null,"x_max":null,"o":"m 439 758 b 339 744 404 758 371 753 l 339 918 b 199 1058 339 996 276 1058 b 60 918 122 1058 60 996 l 60 138 b 199 -1 60 61 122 -1 b 288 31 232 -1 263 10 b 439 -1 335 10 388 -1 b 819 378 649 -1 819 169 b 439 758 819 553 719 758 z m 439 278 b 339 378 383 278 339 322 b 439 479 339 433 383 479 b 540 378 511 479 540 414 b 439 278 540 322 494 278 z "},"c":{"ha":688,"x_min":null,"x_max":null,"o":"m 592 272 l 588 275 b 507 301 564 293 536 301 b 443 286 485 301 464 296 b 408 278 433 281 421 278 b 308 389 340 278 308 313 b 374 482 308 447 332 482 b 438 451 392 482 421 465 b 514 425 458 433 485 425 b 614 465 550 425 588 439 b 653 565 642 494 656 529 b 594 669 651 603 629 640 b 369 749 546 708 482 749 b 29 393 165 749 29 565 b 393 -1 29 172 189 -1 b 643 165 490 -1 643 46 b 592 272 643 207 625 246 z "},"d":{"ha":847,"x_min":null,"x_max":null,"o":"m 647 1058 b 508 918 571 1058 508 996 l 508 744 b 407 758 476 753 442 758 b 28 378 250 758 28 640 b 407 -1 28 169 199 -1 b 560 31 460 -1 511 10 b 647 -1 583 10 615 -1 b 788 138 725 -1 788 61 l 788 918 b 647 1058 788 996 725 1058 z m 407 278 b 307 378 351 278 307 322 b 407 479 307 433 350 479 b 508 378 463 479 508 433 b 407 278 508 322 463 278 z "},"e":{"ha":750,"x_min":null,"x_max":null,"o":"m 721 439 b 408 758 721 706 500 758 b 29 363 304 758 29 665 b 408 -1 29 192 143 -1 b 660 183 636 -1 660 135 b 408 278 660 310 513 278 b 347 307 354 278 347 307 l 525 307 b 721 439 668 307 721 378 z m 326 446 b 414 528 326 446 325 528 b 501 446 499 528 501 446 z "},"f":{"ha":608,"x_min":null,"x_max":null,"o":"m 492 708 l 432 708 b 435 717 433 713 433 715 b 485 724 439 719 456 724 b 624 863 561 724 624 786 b 485 1003 624 940 561 1003 b 151 708 290 1003 167 901 l 117 708 b 11 603 58 708 11 661 b 117 497 11 544 58 497 l 149 497 l 149 138 b 288 -1 149 61 211 -1 b 428 138 365 -1 428 61 l 428 497 l 492 497 b 597 603 550 497 597 544 b 492 708 597 661 550 708 z "},"g":{"ha":847,"x_min":null,"x_max":null,"o":"m 788 50 l 788 615 b 653 758 788 692 728 754 b 560 726 619 760 586 747 b 407 758 511 747 460 758 b 29 406 210 758 43 604 b 129 119 21 300 57 197 b 407 -1 201 43 303 -1 b 504 11 440 -1 472 3 b 407 -71 493 -46 467 -71 b 356 -53 388 -71 371 -64 b 274 -25 331 -35 303 -25 b 142 -136 208 -25 151 -71 b 185 -257 135 -182 151 -226 b 407 -349 250 -314 333 -349 b 788 50 639 -349 788 -178 z m 407 278 b 307 378 351 278 307 322 b 407 479 307 433 351 479 b 508 378 464 479 508 435 b 407 278 508 322 463 278 z "},"h":{"ha":835,"x_min":null,"x_max":null,"o":"m 792 328 b 439 758 790 488 715 758 b 339 744 404 758 371 753 l 339 918 b 199 1058 339 996 276 1058 b 60 918 122 1058 60 996 l 60 138 b 199 -1 60 61 122 -1 b 339 138 276 -1 339 61 l 339 378 b 439 479 339 433 383 479 b 514 324 494 479 514 399 l 514 138 b 653 -1 514 61 576 -1 b 792 138 729 -1 792 61 z "},"i":{"ha":393,"x_min":null,"x_max":null,"o":"m 203 794 b 343 935 281 794 343 857 b 203 1075 343 1011 281 1075 b 63 935 125 1075 63 1011 b 203 794 63 857 125 794 z m 196 765 b 57 626 119 765 57 703 l 57 138 b 196 -1 57 61 119 -1 b 336 138 274 -1 336 61 l 336 626 b 196 765 336 703 274 765 z "},"j":{"ha":400,"x_min":null,"x_max":null,"o":"m 192 794 b 332 935 268 794 332 857 b 192 1075 332 1011 268 1075 b 51 935 114 1075 51 1011 b 192 794 51 857 114 794 z m 340 626 b 200 765 340 703 278 765 b 61 626 124 765 61 703 l 61 46 b 29 -49 61 25 53 -25 b -40 -71 15 -64 -7 -71 b -179 -210 -117 -71 -179 -133 b -40 -349 -179 -286 -117 -349 b 340 50 190 -349 340 -178 z "},"k":{"ha":829,"x_min":null,"x_max":null,"o":"m 738 249 l 561 386 l 732 503 b 768 697 794 547 811 633 b 651 757 740 736 696 757 b 574 733 625 757 597 750 l 339 571 l 339 918 b 199 1058 339 996 276 1058 b 60 918 122 1058 60 996 l 60 138 b 199 -1 60 61 122 -1 b 339 138 276 -1 339 61 l 339 206 l 567 28 b 653 -1 592 8 621 -1 b 763 53 696 -1 736 18 b 738 249 810 114 799 201 z "},"l":{"ha":399,"x_min":null,"x_max":null,"o":"m 199 1058 b 60 918 122 1058 60 996 l 60 138 b 199 -1 60 61 122 -1 b 339 138 276 -1 339 61 l 339 918 b 199 1058 339 996 276 1058 z "},"m":{"ha":1285,"x_min":null,"x_max":null,"o":"m 1243 328 b 890 758 1242 526 1149 758 b 654 676 804 758 721 729 b 436 758 594 729 518 758 b 285 726 385 758 332 747 b 196 758 260 746 229 758 b 57 618 119 758 57 696 l 57 138 b 196 -1 57 61 119 -1 b 336 138 274 -1 336 61 l 336 378 b 436 479 336 433 381 479 b 511 324 492 479 511 399 l 511 138 b 650 -1 511 61 574 -1 b 789 138 726 -1 789 61 l 789 378 b 890 479 789 433 835 479 b 964 324 944 479 964 399 l 964 138 b 1104 -1 964 61 1026 -1 b 1243 138 1181 -1 1243 61 b 1243 328 1243 328 1243 328 z "},"n":{"ha":833,"x_min":null,"x_max":null,"o":"m 689 658 b 436 758 628 724 543 758 b 285 726 385 758 332 747 b 196 758 260 746 229 758 b 57 618 119 758 57 696 l 57 138 b 196 -1 57 61 119 -1 b 336 138 274 -1 336 61 l 336 378 b 436 479 336 433 381 479 b 511 324 492 479 511 399 l 511 138 b 650 -1 511 61 574 -1 b 789 138 726 -1 789 61 l 789 325 b 689 658 792 353 800 538 z "},"o":{"ha":815,"x_min":null,"x_max":null,"o":"m 407 757 b 28 376 199 757 28 586 b 407 -3 28 168 199 -3 b 788 376 617 -3 788 168 b 407 757 788 524 683 757 z m 407 276 b 307 376 351 276 307 321 b 407 478 307 432 351 478 b 508 376 478 478 508 447 b 407 276 508 321 463 276 z "},"p":{"ha":849,"x_min":null,"x_max":null,"o":"m 439 757 b 288 725 388 757 335 746 b 199 757 263 744 232 757 b 60 617 122 757 60 694 l 60 -164 b 199 -303 60 -240 122 -303 b 339 -164 276 -303 339 -240 l 339 13 b 460 -3 381 3 425 -3 b 819 376 599 -3 819 100 b 439 757 819 586 649 757 z m 450 276 b 339 376 386 276 339 319 b 439 478 339 432 383 478 b 540 376 494 478 540 432 b 450 276 540 303 485 276 z "},"q":{"ha":849,"x_min":null,"x_max":null,"o":"m 649 758 b 561 726 617 758 585 746 b 408 758 513 747 461 758 b 29 378 200 758 29 588 b 389 -1 29 101 250 -1 b 510 14 424 -1 468 3 l 510 -162 b 649 -301 510 -239 572 -301 b 789 -162 726 -301 789 -239 l 789 618 b 649 758 789 696 726 758 z m 399 276 b 308 378 363 276 308 304 b 408 479 308 433 353 479 b 510 378 464 479 510 433 b 399 276 510 321 461 276 z "},"r":{"ha":735,"x_min":null,"x_max":null,"o":"m 689 642 b 436 758 624 717 535 758 b 285 726 385 758 332 747 b 196 758 260 746 229 758 b 57 618 119 758 57 696 l 57 138 b 196 -1 57 61 119 -1 b 336 138 274 -1 336 61 l 336 378 b 436 479 336 433 381 479 b 476 461 453 479 465 474 b 571 413 500 432 535 415 b 672 444 608 410 644 421 b 721 540 701 469 718 503 b 689 642 724 578 713 614 z "},"s":{"ha":771,"x_min":null,"x_max":null,"o":"m 268 513 b 358 558 268 556 343 558 b 568 489 446 558 478 489 l 571 490 b 653 561 610 499 640 525 b 631 665 665 597 657 636 b 358 776 583 715 497 776 b 35 513 168 776 35 668 b 514 235 35 236 514 358 b 386 199 514 193 431 199 b 154 297 207 199 261 297 b 60 171 82 297 47 225 b 386 -19 64 157 110 -19 b 746 224 701 -19 746 169 b 268 513 746 550 268 368 z "},"t":{"ha":649,"x_min":null,"x_max":null,"o":"m 482 278 b 432 285 451 278 436 282 b 425 354 429 290 425 307 l 425 547 l 489 547 b 594 653 547 547 594 594 b 489 758 594 711 547 758 l 425 758 l 425 863 b 285 1003 425 940 363 1003 b 146 863 208 1003 146 940 l 146 758 l 114 758 b 8 653 56 758 8 711 b 114 547 8 594 56 547 l 146 547 l 146 354 b 482 -1 146 135 249 -1 b 621 138 558 -1 621 61 b 482 278 621 215 558 278 z "},"u":{"ha":833,"x_min":null,"x_max":null,"o":"m 636 758 b 497 618 560 758 497 696 l 497 378 b 396 278 497 322 451 278 b 322 433 342 278 322 358 l 322 618 b 182 758 322 696 260 758 b 43 618 106 758 43 696 l 43 429 b 396 -1 43 74 235 -1 b 547 31 449 -1 500 10 b 636 -1 572 10 603 -1 b 775 138 713 -1 775 61 l 775 618 b 636 758 775 696 713 758 z "},"v":{"ha":778,"x_min":null,"x_max":null,"o":"m 679 736 b 615 751 658 746 636 751 b 483 669 561 751 510 721 l 389 475 l 290 671 b 160 751 265 722 214 751 b 94 736 138 751 115 747 b 29 539 22 700 -7 611 l 260 79 b 392 -1 285 29 335 -1 b 522 81 447 -1 497 31 l 747 540 b 679 736 782 614 751 701 z "},"w":{"ha":1140,"x_min":null,"x_max":null,"o":"m 1042 736 b 979 750 1021 746 1000 750 b 846 668 925 750 872 719 l 763 497 l 693 661 b 556 750 671 715 614 753 b 421 654 496 750 440 710 l 369 513 l 292 669 b 160 750 267 721 214 750 b 21 650 97 750 40 710 b 29 539 10 613 13 574 l 260 79 b 400 -1 285 26 339 -4 b 529 96 460 3 511 40 l 528 96 b 569 204 532 104 569 204 l 618 88 b 754 -1 640 32 694 -1 b 885 81 811 -1 863 31 l 1110 540 b 1042 736 1144 613 1114 700 z "},"x":{"ha":750,"x_min":null,"x_max":null,"o":"m 556 378 l 682 529 b 663 726 731 589 722 676 b 575 758 638 747 606 758 b 467 707 535 758 494 740 l 375 596 l 282 707 b 175 758 254 740 215 758 b 86 726 143 758 113 747 b 68 529 28 676 19 589 l 193 378 l 68 226 b 86 31 19 168 28 79 b 175 -1 111 10 143 -1 b 282 49 217 -1 256 17 l 375 160 l 467 49 b 574 -1 493 17 532 -1 b 663 31 607 -1 638 10 b 682 226 722 79 731 168 z "},"y":{"ha":835,"x_min":null,"x_max":null,"o":"m 211 -18 b 107 -111 163 -28 122 -64 b 140 -246 93 -158 106 -211 b 394 -349 206 -314 293 -349 b 664 -243 503 -349 596 -312 b 774 50 772 -132 775 21 l 774 615 b 639 758 774 692 714 756 b 496 618 560 758 496 699 l 496 378 b 394 278 494 322 450 278 b 321 433 340 278 321 358 l 321 615 b 185 758 321 692 260 756 b 42 618 106 758 42 697 l 42 428 b 143 115 43 297 76 193 b 394 -1 207 40 296 -1 b 492 11 428 -1 460 3 b 463 -49 486 -10 478 -35 b 394 -71 449 -64 426 -71 b 333 -53 367 -71 346 -64 b 214 -18 301 -22 257 -10 z "},"z":{"ha":779,"x_min":null,"x_max":null,"o":"m 492 278 b 704 533 492 278 636 456 b 747 639 735 569 747 601 b 593 758 747 722 692 758 l 168 758 b 168 479 -17 750 -17 488 l 297 479 l 88 226 b 56 125 83 221 56 186 b 194 -1 56 11 189 -1 l 593 -1 b 593 278 778 6 778 269 z "},"{":{"ha":632,"x_min":null,"x_max":null,"o":"m 479 -11 b 463 6 471 -11 463 -4 l 461 244 b 419 381 461 293 447 340 b 461 517 447 421 461 468 l 463 811 b 479 828 463 821 471 828 b 588 924 535 828 582 869 b 560 1004 590 953 581 982 b 482 1039 540 1026 513 1039 l 413 1039 b 169 797 279 1039 169 931 l 169 503 b 156 486 169 494 163 488 l 150 486 b 49 411 103 486 63 456 b 47 407 49 410 49 408 b 46 396 47 403 46 399 l 44 390 l 44 371 l 46 367 b 47 356 46 363 47 358 l 49 351 b 150 275 63 307 103 275 l 156 275 b 169 258 163 274 169 267 l 169 19 b 413 -222 169 -114 279 -222 l 482 -222 b 560 -187 513 -222 540 -210 b 588 -107 581 -165 590 -136 b 479 -11 582 -53 535 -11 z "},"|":{"ha":347,"x_min":null,"x_max":null,"o":"m 174 1039 b 68 933 115 1039 68 992 l 68 -69 b 174 -174 68 -126 115 -174 b 279 -69 232 -174 279 -126 l 279 933 b 174 1039 279 992 232 1039 z "},"}":{"ha":632,"x_min":null,"x_max":null,"o":"m 586 390 l 585 396 b 585 399 585 397 585 397 l 583 404 b 583 407 583 406 583 406 l 582 411 b 481 486 569 456 528 486 l 476 486 b 461 503 468 488 461 494 l 461 797 b 218 1039 461 931 351 1039 l 149 1039 b 71 1004 119 1039 90 1026 b 43 924 50 982 40 953 b 151 828 49 869 96 828 b 168 811 160 828 168 821 l 169 517 b 211 381 169 468 183 421 b 169 244 183 340 169 293 l 168 6 b 151 -11 168 -4 160 -11 b 43 -107 96 -11 49 -53 b 71 -187 40 -136 50 -165 b 149 -222 90 -210 119 -222 l 218 -222 b 461 19 351 -222 461 -114 l 461 258 b 476 275 461 267 468 274 l 481 275 b 582 351 528 275 569 307 l 583 354 b 585 367 583 358 585 363 l 586 371 z "}," ":{"ha":375,"x_min":null,"x_max":null,"o":""},"¡":{"ha":429,"x_min":null,"x_max":null,"o":"m 214 836 b 354 976 292 836 354 899 b 214 1117 354 1054 292 1117 b 74 976 138 1117 74 1054 b 214 836 74 899 138 836 z m 214 815 b 68 669 133 815 68 750 l 68 -99 b 214 -246 68 -181 133 -246 b 361 -99 294 -246 361 -181 l 361 669 b 214 815 361 750 294 815 z "},"¢":{"ha":729,"x_min":null,"x_max":null,"o":"m 613 419 l 608 424 b 529 450 585 440 557 450 b 464 433 507 450 485 444 b 429 425 454 428 442 425 b 329 538 361 425 329 461 b 394 629 329 596 353 629 b 458 599 413 629 442 614 b 533 572 478 581 506 572 b 635 614 571 572 608 586 b 674 713 663 643 676 676 b 467 890 671 808 549 874 l 467 921 b 363 1043 467 988 419 1043 b 257 921 304 1043 257 988 l 257 868 b 50 540 129 810 50 672 b 257 185 50 381 133 247 l 257 153 b 363 31 257 85 304 31 b 467 150 419 31 467 85 b 664 314 553 164 664 211 b 613 419 664 356 646 394 z "},"£":{"ha":1053,"x_min":null,"x_max":null,"o":"m 853 296 l 482 296 l 482 488 l 693 488 b 799 593 751 488 799 535 b 693 699 799 651 751 699 l 499 699 b 603 772 513 735 542 772 b 738 717 643 772 674 768 b 831 683 764 694 797 683 b 943 738 872 683 915 701 b 975 846 968 768 979 807 b 922 944 971 885 953 919 b 603 1065 817 1029 722 1065 b 199 699 400 1065 235 914 l 139 699 b 33 593 81 699 33 651 b 139 488 33 535 81 488 l 190 488 l 190 192 b 378 3 190 88 274 3 l 853 3 b 999 150 933 3 999 69 b 853 296 999 231 933 296 z "},"¤":{"ha":847,"x_min":null,"x_max":null,"o":"m 715 442 b 760 608 744 492 760 549 b 726 756 760 653 750 706 l 758 790 b 757 939 800 832 799 899 b 685 968 736 958 710 968 b 608 936 657 968 629 957 l 582 910 b 424 946 539 932 486 946 b 268 907 368 946 314 932 l 239 936 b 163 968 218 957 190 968 b 90 939 138 968 111 958 b 88 790 49 899 47 832 l 121 756 b 88 608 99 711 88 661 b 132 442 88 549 103 492 l 88 397 b 90 247 47 356 49 289 b 163 218 111 228 138 218 b 239 250 190 218 218 229 l 288 300 b 424 272 329 282 375 272 b 560 300 472 272 518 282 l 608 250 b 685 218 629 229 657 218 b 757 247 710 218 736 228 b 758 397 799 289 800 356 z m 342 608 b 424 690 342 654 378 690 b 506 608 481 690 506 667 b 424 526 506 564 469 526 b 342 608 378 526 342 564 z "},"¥":{"ha":989,"x_min":null,"x_max":null,"o":"m 942 924 b 797 1053 933 997 871 1053 b 682 997 753 1053 711 1033 l 493 757 l 307 996 b 210 1051 283 1026 249 1047 b 103 1022 171 1057 133 1046 b 47 925 71 997 51 963 b 76 817 42 886 53 847 l 272 565 b 151 460 206 564 151 517 b 274 354 151 401 207 354 l 347 354 l 347 322 l 274 322 b 151 217 207 322 151 275 b 274 111 151 158 207 111 l 349 111 b 493 -8 361 43 421 -8 b 636 111 565 -8 625 43 l 715 111 b 836 217 782 111 836 158 b 715 322 836 275 782 322 l 639 322 l 639 354 l 715 354 b 836 460 782 354 836 401 b 715 565 836 518 782 565 l 714 565 l 911 815 b 942 924 936 847 946 885 z "},"§":{"ha":1011,"x_min":null,"x_max":null,"o":"m 956 322 b 356 708 956 758 356 515 b 468 769 356 767 450 769 b 732 678 578 769 618 678 l 735 678 b 838 774 785 690 822 726 b 810 913 854 822 843 874 b 468 1061 750 981 643 1061 b 63 708 229 1061 63 917 b 99 575 63 653 76 610 b 63 418 75 529 63 476 b 663 47 63 49 663 213 b 503 -1 663 -8 558 -1 b 213 131 279 -1 347 131 b 94 -39 122 131 78 33 b 503 -293 99 -57 157 -293 b 956 32 899 -293 956 -40 b 917 189 956 100 942 150 b 956 322 947 244 956 296 z m 657 317 b 356 418 506 335 356 321 b 365 446 356 429 358 439 b 663 338 514 421 663 419 b 657 317 663 329 661 322 z "},"©":{"ha":1321,"x_min":null,"x_max":null,"o":"m 660 1088 b 56 482 326 1088 56 815 b 660 -122 56 150 326 -122 b 1264 482 993 -122 1264 150 b 660 1088 1264 815 993 1088 z m 660 90 b 268 482 444 90 268 267 b 660 875 268 699 444 875 b 1051 482 876 875 1051 699 b 660 90 1051 267 876 90 z m 800 429 b 725 396 772 429 746 418 b 668 367 703 369 694 367 b 563 471 610 367 563 414 b 668 576 563 529 610 576 b 725 551 685 576 696 575 b 799 531 746 535 772 528 b 865 567 825 533 849 546 b 850 706 900 610 893 672 b 668 775 790 754 736 775 b 364 471 500 775 364 639 b 668 168 364 303 500 168 b 788 193 714 168 751 176 b 875 264 818 210 846 231 b 900 336 892 283 901 310 b 800 429 894 388 853 429 z "},"ª":{"ha":786,"x_min":null,"x_max":null,"o":"m 599 1114 b 514 1082 567 1114 538 1103 b 389 1107 475 1099 432 1107 b 53 769 204 1107 53 956 b 389 433 53 585 204 433 b 521 460 435 433 479 442 b 599 433 543 443 569 433 b 726 561 669 433 726 490 l 726 988 b 599 1114 726 1057 669 1114 z m 389 688 b 307 769 344 688 307 725 b 389 851 307 815 344 851 b 471 769 406 851 471 838 b 389 688 471 725 435 688 z "},"«":{"ha":1051,"x_min":null,"x_max":null,"o":"m 521 381 l 336 506 l 521 629 b 549 775 568 661 581 728 b 461 822 529 806 494 822 b 403 804 440 822 421 817 l 90 594 b 44 506 61 574 44 542 b 90 417 44 469 61 436 l 403 206 b 461 189 421 194 440 189 b 549 235 494 189 528 204 b 521 381 581 283 568 349 z m 950 381 l 765 506 l 950 629 b 994 697 972 644 989 669 b 978 775 1000 724 993 753 b 890 822 958 806 925 822 b 832 804 871 822 850 817 l 519 594 b 474 506 490 574 474 542 b 519 417 474 469 490 436 l 832 206 b 890 189 850 194 871 189 b 978 235 925 189 958 204 b 994 314 993 258 1000 286 b 950 381 989 342 972 365 z "},"­":{"ha":0,"x_min":null,"x_max":null,"o":""},"®":{"ha":882,"x_min":null,"x_max":null,"o":"m 440 1047 b 53 660 226 1047 53 874 b 440 271 53 446 226 271 b 829 660 654 271 829 446 b 440 1047 829 874 654 1047 z m 440 401 b 183 660 299 401 183 517 b 440 917 183 801 299 917 b 699 660 583 917 699 801 b 440 401 699 517 583 401 z m 483 842 l 372 842 b 300 769 332 842 300 810 l 300 518 b 372 444 300 478 332 444 b 446 518 413 444 446 478 l 446 522 l 483 474 b 542 446 497 457 518 446 b 614 510 578 446 608 474 b 599 564 615 529 611 549 l 578 590 b 628 699 610 617 628 657 b 483 842 628 778 563 842 z "},"°":{"ha":461,"x_min":null,"x_max":null,"o":"m 231 1039 b 49 857 131 1039 49 957 b 231 675 49 757 131 675 b 413 857 331 675 413 757 b 231 1039 413 957 331 1039 z m 231 813 b 186 857 207 813 186 833 b 231 900 186 881 207 900 b 274 857 254 900 274 881 b 231 813 274 833 254 813 z "},"²":{"ha":621,"x_min":null,"x_max":null,"o":"m 458 644 l 264 644 b 303 663 264 656 268 663 l 307 663 b 563 865 446 663 563 710 b 308 1089 563 994 456 1089 b 100 996 193 1089 140 1042 b 78 897 75 969 68 932 b 153 829 89 863 117 838 b 176 826 160 826 168 826 b 56 651 111 799 60 744 l 56 565 b 183 436 56 494 113 436 l 458 436 b 563 540 515 436 563 483 b 458 644 563 599 515 644 z m 251 860 b 308 881 264 874 283 881 b 354 865 324 881 354 876 b 354 857 354 861 354 858 b 292 849 350 854 336 849 b 232 843 272 849 251 846 b 251 860 239 847 246 853 z "},"³":{"ha":601,"x_min":null,"x_max":null,"o":"m 543 865 b 289 1089 543 994 436 1089 b 82 999 179 1089 125 1046 b 60 896 57 971 49 932 b 135 828 71 861 99 836 b 232 860 169 821 207 832 b 289 881 244 874 264 881 b 335 865 304 881 335 876 b 276 857 329 863 315 858 b 186 763 226 856 186 814 b 278 668 186 711 226 669 b 335 661 314 667 329 664 l 335 660 b 289 644 335 649 304 644 b 232 665 264 644 246 651 b 153 700 211 689 182 701 b 63 638 113 697 78 674 b 81 529 47 600 54 558 b 289 436 121 485 174 436 b 543 660 436 436 543 531 b 503 760 543 701 525 735 b 543 865 525 783 543 818 z "},"·":{"ha":372,"x_min":null,"x_max":null,"o":"m 186 493 b 46 354 108 493 46 431 b 186 214 46 276 108 214 b 326 354 264 214 326 276 b 186 493 326 431 264 493 z "},"¹":{"ha":411,"x_min":null,"x_max":null,"o":"m 247 1089 l 125 1089 b 44 1008 81 1089 44 1053 b 125 928 44 964 81 928 l 143 928 l 143 540 b 247 436 143 483 190 436 b 351 540 304 436 351 483 l 351 985 b 247 1089 351 1043 304 1089 z "},"º":{"ha":779,"x_min":null,"x_max":null,"o":"m 389 1107 b 53 769 204 1107 53 956 b 389 433 53 585 204 433 b 726 769 575 433 726 585 b 389 1107 726 900 635 1107 z m 389 688 b 307 769 344 688 307 725 b 389 851 307 815 344 851 b 471 769 447 851 471 828 b 389 688 471 725 435 688 z "},"»":{"ha":1051,"x_min":null,"x_max":null,"o":"m 960 594 l 647 804 b 589 822 629 817 610 822 b 501 775 556 822 521 806 b 485 696 486 753 481 724 b 531 629 490 669 507 644 l 714 506 l 531 381 b 485 314 507 365 490 342 b 501 235 481 286 486 258 b 589 189 522 204 556 189 b 647 206 610 189 629 194 l 960 417 b 1006 506 989 436 1006 469 b 960 594 1006 542 989 574 z m 576 506 b 531 594 576 542 560 574 l 218 804 b 160 822 200 817 181 822 b 72 775 126 822 92 806 b 100 629 40 728 53 661 l 285 506 l 100 381 b 72 235 53 349 40 283 b 160 189 93 204 126 189 b 218 206 181 189 200 194 l 531 417 b 576 506 560 436 576 469 z "},"¿":{"ha":882,"x_min":null,"x_max":null,"o":"m 460 836 b 600 976 538 836 600 899 b 460 1117 600 1054 538 1117 b 319 976 382 1117 319 1054 b 460 836 319 899 382 836 z m 806 42 b 701 139 790 90 751 126 b 563 94 651 150 597 133 b 439 47 535 63 493 47 b 326 107 421 47 326 50 b 433 171 326 139 326 165 l 468 171 b 614 318 549 171 614 236 l 614 669 b 468 817 614 750 549 817 b 321 669 388 817 321 750 l 321 418 b 33 107 135 392 33 283 b 439 -246 33 -100 200 -246 b 775 -96 625 -246 710 -168 b 806 42 810 -58 821 -7 z "},"À":{"ha":936,"x_min":null,"x_max":null,"o":"m 464 1210 b 535 1168 478 1183 506 1168 l 554 1168 b 617 1197 579 1168 601 1178 b 632 1265 632 1217 638 1242 l 607 1376 b 529 1439 599 1414 567 1439 l 475 1439 b 406 1400 446 1439 421 1425 b 404 1321 392 1375 390 1346 z m 919 214 l 600 986 b 464 1076 576 1042 524 1076 b 329 985 404 1076 351 1040 l 18 213 b 18 100 3 176 3 136 b 153 11 42 47 94 11 b 289 103 214 11 267 47 l 319 178 l 617 178 l 649 101 b 785 11 672 46 726 11 b 840 22 803 11 822 15 b 919 214 914 53 950 139 z m 438 471 l 467 543 l 496 471 z "},"Á":{"ha":936,"x_min":null,"x_max":null,"o":"m 429 1168 l 449 1168 b 518 1210 478 1168 504 1183 l 579 1321 b 576 1400 592 1346 592 1375 b 508 1439 563 1425 536 1439 l 454 1439 b 375 1376 415 1439 383 1414 l 350 1265 b 367 1197 346 1242 351 1217 b 429 1168 382 1178 404 1168 z m 919 214 l 600 986 b 464 1076 576 1042 524 1076 b 329 985 404 1076 351 1040 l 18 213 b 18 100 3 176 3 136 b 153 11 42 47 94 11 b 289 103 214 11 267 47 l 319 178 l 617 178 l 649 101 b 785 11 672 46 726 11 b 840 22 803 11 822 15 b 919 214 914 53 950 139 z m 438 471 l 467 543 l 496 471 z "},"Â":{"ha":936,"x_min":null,"x_max":null,"o":"m 357 1168 l 413 1168 b 469 1303 456 1168 469 1303 b 526 1168 469 1303 488 1168 l 576 1168 b 624 1265 636 1168 629 1242 l 599 1376 b 521 1439 590 1414 558 1439 l 418 1439 b 340 1376 381 1439 347 1414 l 315 1265 b 357 1168 303 1200 310 1168 z m 919 214 l 599 986 b 464 1076 576 1042 524 1076 b 328 985 404 1076 350 1040 l 18 213 b 99 22 -12 138 24 53 b 153 11 117 15 135 11 b 289 103 214 11 267 47 l 319 179 l 617 179 l 649 101 b 785 11 672 46 726 11 b 840 22 803 11 822 15 b 919 214 914 53 950 139 z m 438 471 l 467 543 l 496 471 z "},"Ã":{"ha":936,"x_min":null,"x_max":null,"o":"m 347 1164 l 351 1163 l 357 1163 b 431 1213 397 1163 418 1192 b 532 1174 460 1188 497 1174 b 660 1301 606 1176 657 1242 b 579 1393 660 1350 631 1393 b 513 1354 542 1393 522 1374 b 421 1386 486 1375 456 1386 b 317 1339 382 1386 344 1369 b 278 1239 290 1310 275 1272 b 347 1164 281 1201 307 1172 z m 919 214 l 599 986 b 464 1076 576 1042 524 1076 b 328 985 404 1076 350 1040 l 18 213 b 99 22 -12 138 24 53 b 153 11 117 15 135 11 b 289 103 214 11 267 47 l 319 179 l 617 179 l 649 101 b 785 11 672 46 726 11 b 840 22 803 11 822 15 b 919 214 914 53 950 139 z m 438 471 l 467 543 l 496 471 z "},"Ä":{"ha":936,"x_min":null,"x_max":null,"o":"m 311 1168 b 451 1307 389 1168 451 1231 b 311 1447 451 1385 389 1447 b 171 1307 233 1447 171 1385 b 311 1168 171 1231 233 1168 z m 626 1168 b 765 1307 703 1168 765 1231 b 626 1447 765 1385 703 1447 b 486 1307 549 1447 486 1385 b 626 1168 486 1231 549 1168 z m 919 214 l 599 986 b 464 1076 576 1042 524 1076 b 328 985 404 1076 350 1040 l 18 213 b 99 22 -12 138 24 53 b 153 11 117 15 135 11 b 289 103 214 11 267 47 l 319 178 l 617 178 l 649 101 b 785 11 672 46 726 11 b 840 22 803 11 822 15 b 919 214 914 53 950 139 z m 438 471 l 467 543 l 496 471 z "},"Å":{"ha":936,"x_min":null,"x_max":null,"o":"m 468 1157 b 622 1310 553 1157 622 1226 b 468 1464 622 1394 553 1464 b 315 1310 383 1464 315 1394 b 468 1157 315 1226 383 1157 z m 468 1347 b 506 1310 489 1347 506 1331 b 468 1274 506 1290 489 1274 b 432 1310 449 1274 432 1290 b 468 1347 432 1331 449 1347 z m 919 214 l 599 986 b 464 1076 576 1042 524 1076 b 328 985 404 1076 350 1040 l 18 213 b 99 22 -12 138 24 53 b 153 11 117 15 135 11 b 289 103 214 11 267 47 l 319 179 l 617 179 l 649 101 b 785 11 672 46 726 11 b 840 22 803 11 822 15 b 919 214 914 53 950 139 z m 438 471 l 467 543 l 496 471 z "},"Æ":{"ha":1440,"x_min":null,"x_max":null,"o":"m 1438 172 b 1268 307 1418 249 1344 307 l 892 307 l 864 400 l 1104 400 b 1203 446 1144 400 1181 417 b 1225 557 1226 475 1235 517 b 1056 692 1206 633 1132 692 l 793 692 l 769 783 l 1128 783 b 1226 831 1168 783 1204 801 b 1249 942 1250 860 1258 900 b 1079 1076 1229 1017 1156 1076 b 557 1078 1058 1076 565 1078 b 417 990 499 1078 443 1043 l 19 218 b 11 101 1 181 -3 138 b 139 14 31 46 82 14 b 279 101 197 14 253 47 l 319 181 l 617 181 l 639 108 b 790 15 658 47 708 15 b 1317 15 806 15 883 15 b 1417 61 1357 15 1393 32 b 1438 172 1439 92 1447 132 z m 471 472 l 507 544 l 529 472 z "},"Ç":{"ha":981,"x_min":null,"x_max":null,"o":"m 904 386 b 799 422 875 413 838 425 b 697 374 760 419 724 403 b 557 304 649 317 622 304 b 318 544 425 304 318 411 b 557 783 318 676 425 783 b 692 728 597 783 628 781 b 783 696 719 707 751 696 b 899 750 826 696 869 714 b 876 956 949 813 939 904 b 557 1076 772 1040 676 1076 b 25 544 263 1076 25 839 b 385 40 25 315 169 114 l 378 17 b 385 -62 369 -10 372 -37 b 449 -111 399 -86 421 -104 b 501 -150 469 -118 506 -131 b 499 -154 500 -153 499 -154 b 444 -142 496 -156 479 -157 b 411 -135 433 -137 422 -135 b 321 -204 368 -135 332 -162 b 371 -310 310 -246 331 -292 b 504 -342 401 -325 451 -342 b 685 -153 611 -342 685 -264 b 583 3 685 -65 631 -21 l 592 13 b 918 179 735 22 824 74 b 904 386 971 240 965 333 z "},"È":{"ha":901,"x_min":null,"x_max":null,"o":"m 489 1210 b 558 1168 503 1183 529 1168 l 578 1168 b 640 1197 603 1168 625 1178 b 657 1265 656 1217 663 1242 l 632 1376 b 553 1439 624 1414 592 1439 l 499 1439 b 431 1400 471 1439 444 1425 b 428 1321 415 1375 415 1346 z m 726 307 l 356 307 l 356 400 l 607 400 b 754 546 688 400 754 465 b 607 692 754 626 688 692 l 356 692 l 356 783 l 726 783 b 872 931 807 783 872 850 b 726 1076 872 1011 807 1076 l 251 1076 b 63 889 147 1076 63 992 l 63 161 b 208 15 63 81 128 15 l 726 15 b 872 161 807 15 872 81 b 726 307 872 242 807 307 z "},"É":{"ha":901,"x_min":null,"x_max":null,"o":"m 482 1168 l 501 1168 b 571 1210 531 1168 557 1183 l 632 1321 b 629 1400 644 1346 644 1375 b 561 1439 615 1425 589 1439 l 507 1439 b 428 1376 468 1439 436 1414 l 403 1265 b 419 1197 399 1242 404 1217 b 482 1168 435 1178 457 1168 z m 726 307 l 356 307 l 356 400 l 607 400 b 754 546 688 400 754 465 b 607 692 754 626 688 692 l 356 692 l 356 783 l 726 783 b 872 931 807 783 872 850 b 726 1076 872 1011 807 1076 l 251 1076 b 63 889 147 1076 63 992 l 63 161 b 208 15 63 81 128 15 l 726 15 b 872 161 807 15 872 81 b 726 307 872 242 807 307 z "},"Ê":{"ha":901,"x_min":null,"x_max":null,"o":"m 356 1168 l 411 1168 b 468 1303 454 1168 468 1303 b 525 1168 468 1303 486 1168 l 575 1168 b 622 1265 635 1168 628 1242 l 597 1376 b 519 1439 589 1414 557 1439 l 417 1439 b 339 1376 379 1439 347 1414 l 314 1265 b 356 1168 303 1200 308 1168 z m 726 307 l 356 307 l 356 400 l 607 400 b 754 546 688 400 754 465 b 607 692 754 626 688 692 l 356 692 l 356 783 l 726 783 b 872 931 807 783 872 850 b 726 1076 872 1011 807 1076 l 251 1076 b 63 889 147 1076 63 992 l 63 161 b 208 15 63 81 128 15 l 726 15 b 872 161 807 15 872 81 b 726 307 872 242 807 307 z "},"Ë":{"ha":901,"x_min":null,"x_max":null,"o":"m 310 1168 b 450 1307 388 1168 450 1231 b 310 1447 450 1385 388 1447 b 169 1307 233 1447 169 1385 b 310 1168 169 1231 233 1168 z m 625 1168 b 765 1307 701 1168 765 1231 b 625 1447 765 1385 701 1447 b 485 1307 547 1447 485 1385 b 625 1168 485 1231 547 1168 z m 726 307 l 356 307 l 356 400 l 607 400 b 754 546 688 400 754 465 b 607 692 754 626 688 692 l 356 692 l 356 783 l 726 783 b 872 931 807 783 872 850 b 726 1076 872 1011 807 1076 l 251 1076 b 63 889 147 1076 63 992 l 63 161 b 208 15 63 81 128 15 l 726 15 b 872 161 807 15 872 81 b 726 307 872 242 807 307 z "},"Ì":{"ha":421,"x_min":null,"x_max":null,"o":"m 178 1210 b 247 1168 192 1183 218 1168 l 267 1168 b 329 1197 292 1168 314 1178 b 346 1265 344 1217 350 1242 l 321 1376 b 242 1439 313 1414 281 1439 l 188 1439 b 119 1400 160 1439 133 1425 b 117 1321 104 1375 104 1346 z m 210 1076 b 64 931 129 1076 64 1011 l 64 161 b 210 15 64 81 129 15 b 357 161 290 15 357 81 l 357 931 b 210 1076 357 1011 290 1076 z "},"Í":{"ha":421,"x_min":null,"x_max":null,"o":"m 171 1168 l 190 1168 b 260 1210 219 1168 246 1183 l 321 1321 b 318 1400 333 1346 333 1375 b 250 1439 304 1425 278 1439 l 196 1439 b 117 1376 157 1439 125 1414 l 92 1265 b 108 1197 88 1242 93 1217 b 171 1168 124 1178 146 1168 z m 210 1076 b 64 931 129 1076 64 1011 l 64 161 b 210 15 64 81 129 15 b 357 161 290 15 357 81 l 357 931 b 210 1076 357 1011 290 1076 z "},"Î":{"ha":422,"x_min":null,"x_max":null,"o":"m 143 1168 b 200 1303 186 1168 200 1303 b 257 1168 200 1303 218 1168 l 307 1168 b 354 1265 365 1168 360 1242 l 329 1376 b 251 1439 321 1414 289 1439 l 149 1439 b 69 1376 111 1439 78 1414 l 46 1265 b 88 1168 33 1200 40 1168 z m 211 1076 b 65 931 131 1076 65 1011 l 65 161 b 211 15 65 81 131 15 b 357 161 292 15 357 81 l 357 931 b 211 1076 357 1011 292 1076 z "},"Ï":{"ha":424,"x_min":null,"x_max":null,"o":"m 194 1307 b 54 1447 194 1385 132 1447 b -86 1307 -24 1447 -86 1385 b 54 1168 -86 1231 -24 1168 b 194 1307 132 1168 194 1231 z m 368 1447 b 228 1307 292 1447 228 1385 b 368 1168 228 1231 292 1168 b 508 1307 446 1168 508 1231 b 368 1447 508 1385 446 1447 z m 211 1076 b 65 931 131 1076 65 1011 l 65 161 b 211 15 65 81 131 15 b 357 161 292 15 357 81 l 357 931 b 211 1076 357 1011 292 1076 z "},"Ñ":{"ha":886,"x_min":null,"x_max":null,"o":"m 321 1164 l 326 1163 l 331 1163 b 404 1213 371 1163 393 1192 b 507 1174 435 1188 471 1174 b 633 1301 581 1176 632 1242 b 610 1369 635 1329 625 1353 b 553 1393 594 1385 575 1393 b 486 1354 517 1393 497 1374 b 394 1386 460 1375 429 1386 b 290 1339 356 1386 318 1369 b 251 1239 264 1310 250 1272 b 321 1164 256 1201 282 1172 z m 675 1076 b 529 931 594 1076 529 1011 l 529 686 l 336 1006 b 328 1018 333 1010 331 1014 b 324 1022 326 1019 325 1021 l 324 1024 l 318 1029 b 299 1047 311 1036 306 1042 l 297 1049 b 293 1051 296 1049 294 1050 l 292 1051 b 288 1054 290 1053 289 1054 l 271 1064 b 269 1064 271 1064 269 1064 l 267 1065 b 239 1074 256 1069 247 1072 l 238 1074 b 232 1075 236 1075 233 1075 l 229 1075 b 228 1075 229 1075 229 1075 l 226 1076 b 189 1075 213 1076 200 1076 l 188 1075 b 186 1075 188 1075 186 1075 l 182 1074 b 181 1074 182 1074 182 1074 l 179 1074 b 175 1072 178 1072 176 1072 l 161 1068 b 156 1067 158 1067 157 1067 l 154 1065 b 121 1046 143 1061 132 1054 l 119 1046 b 118 1044 119 1044 118 1044 l 117 1043 b 113 1040 115 1042 114 1040 l 111 1038 b 92 1017 104 1032 99 1025 l 90 1014 b 89 1013 90 1014 89 1013 l 89 1011 b 88 1010 89 1011 89 1011 l 88 1008 b 86 1007 86 1008 86 1007 l 83 1003 b 82 1001 83 1003 83 1003 l 82 1000 b 81 999 81 1000 81 999 l 79 997 b 79 996 79 997 79 996 l 78 993 b 78 992 78 993 78 992 l 76 990 b 75 985 76 989 75 988 b 67 958 71 976 68 968 l 67 957 b 67 956 67 957 67 956 l 65 953 b 65 951 65 953 65 951 l 65 944 b 64 929 64 940 64 935 l 64 161 b 210 15 64 81 129 15 b 357 161 290 15 357 81 l 357 406 l 550 86 b 554 78 551 83 553 81 l 556 76 b 557 75 556 76 557 75 l 558 72 b 560 71 560 72 560 71 l 561 69 b 567 63 564 67 565 65 l 572 57 b 575 54 574 56 575 56 l 578 51 b 585 46 581 50 582 49 l 597 38 b 603 35 599 36 601 35 l 604 33 b 611 29 607 32 610 31 l 613 29 b 621 25 615 28 618 26 b 649 18 629 22 639 19 b 656 17 650 17 653 17 l 658 17 b 664 15 660 15 661 15 l 675 15 b 696 17 682 15 690 15 l 697 17 b 710 19 701 18 707 18 l 713 19 b 717 21 714 21 717 21 l 719 22 b 721 22 719 22 721 22 l 722 24 b 724 24 724 24 724 24 l 729 26 b 735 28 732 26 733 28 l 747 35 b 764 46 753 38 758 40 l 765 46 b 767 47 767 47 767 47 l 768 49 b 772 51 769 50 771 51 l 774 54 b 792 72 781 60 786 67 l 792 74 b 793 75 792 74 793 75 l 794 78 b 796 79 796 78 796 79 l 796 81 b 799 85 797 82 799 83 l 800 86 b 803 90 801 88 801 89 l 804 92 b 804 93 804 93 804 93 l 806 94 b 806 96 806 94 806 96 l 807 99 b 807 100 807 99 807 100 l 808 101 b 811 107 808 103 810 104 b 818 133 814 115 817 124 b 819 140 819 136 819 138 l 821 147 l 821 931 b 675 1076 821 1011 756 1076 z "},"Ò":{"ha":1115,"x_min":null,"x_max":null,"o":"m 464 1210 b 535 1168 479 1183 506 1168 l 554 1168 b 617 1197 579 1168 601 1178 b 632 1265 632 1217 638 1242 l 607 1376 b 529 1439 600 1414 567 1439 l 475 1439 b 406 1400 446 1439 421 1425 b 404 1321 392 1375 390 1346 z m 557 1076 b 25 544 263 1076 25 839 b 557 11 25 251 263 11 b 1090 544 851 11 1090 250 b 557 1076 1090 838 851 1076 z m 557 304 b 318 544 425 304 318 411 b 557 783 318 676 425 783 b 797 544 690 783 797 678 b 557 304 797 411 690 304 z "},"Ó":{"ha":1115,"x_min":null,"x_max":null,"o":"m 518 1168 l 538 1168 b 607 1210 567 1168 593 1183 l 668 1321 b 667 1400 682 1346 681 1375 b 597 1439 651 1425 626 1439 l 543 1439 b 464 1376 506 1439 472 1414 l 440 1265 b 456 1197 435 1242 440 1217 b 518 1168 471 1178 493 1168 z m 557 1076 b 25 544 263 1076 25 839 b 557 11 25 251 263 11 b 1090 544 851 11 1090 250 b 557 1076 1090 838 851 1076 z m 557 304 b 318 544 425 304 318 411 b 557 783 318 676 425 783 b 797 544 690 783 797 678 b 557 304 797 411 690 304 z "},"Ô":{"ha":1115,"x_min":null,"x_max":null,"o":"m 446 1168 l 501 1168 b 558 1303 544 1168 558 1303 b 615 1168 558 1303 576 1168 l 665 1168 b 713 1265 725 1168 718 1242 l 688 1376 b 610 1439 679 1414 647 1439 l 507 1439 b 429 1376 469 1439 438 1414 l 404 1265 b 446 1168 393 1200 399 1168 z m 557 1076 b 25 544 263 1076 25 839 b 557 11 25 251 263 11 b 1090 544 851 11 1090 250 b 557 1076 1090 838 851 1076 z m 557 304 b 318 544 425 304 318 411 b 557 783 318 676 425 783 b 797 544 690 783 797 678 b 557 304 797 411 690 304 z "},"Õ":{"ha":1115,"x_min":null,"x_max":null,"o":"m 436 1164 l 442 1163 l 446 1163 b 519 1213 486 1163 507 1192 b 621 1174 550 1188 586 1174 b 749 1301 696 1176 747 1242 b 668 1393 749 1350 719 1393 b 601 1354 632 1393 613 1374 b 510 1386 575 1375 544 1386 b 406 1339 471 1386 433 1369 b 367 1239 379 1310 364 1272 b 436 1164 369 1201 396 1172 z m 557 1076 b 25 544 263 1076 25 839 b 557 11 25 251 263 11 b 1090 544 851 11 1090 250 b 557 1076 1090 838 851 1076 z m 557 304 b 318 544 425 304 318 411 b 557 783 318 676 425 783 b 797 544 690 783 797 678 b 557 304 797 411 690 304 z "},"Ö":{"ha":1115,"x_min":null,"x_max":null,"o":"m 400 1168 b 540 1307 478 1168 540 1231 b 400 1447 540 1385 478 1447 b 260 1307 324 1447 260 1385 b 400 1168 260 1231 324 1168 z m 715 1168 b 856 1307 792 1168 856 1231 b 715 1447 856 1385 792 1447 b 575 1307 638 1447 575 1385 b 715 1168 575 1231 638 1168 z m 557 1076 b 25 544 263 1076 25 839 b 557 11 25 251 263 11 b 1090 544 851 11 1090 250 b 557 1076 1090 838 851 1076 z m 557 304 b 318 544 425 304 318 411 b 557 783 318 676 425 783 b 797 544 690 783 797 678 b 557 304 797 411 690 304 z "},"×":{"ha":594,"x_min":null,"x_max":null,"o":"m 440 278 l 511 365 b 511 525 547 410 547 481 b 433 564 492 550 463 564 b 356 525 404 564 375 550 l 297 453 l 239 524 b 161 563 218 549 190 563 b 83 524 132 563 103 549 b 83 364 46 479 46 408 l 153 278 l 85 193 b 85 33 47 149 47 78 b 161 -6 104 8 132 -6 b 239 33 192 -6 219 8 l 297 103 l 356 32 b 432 -7 375 7 403 -7 b 510 32 463 -7 490 7 b 510 192 547 76 547 147 z "},"Ø":{"ha":1132,"x_min":null,"x_max":null,"o":"m 1028 807 l 1039 818 b 1049 968 1083 857 1088 925 b 975 1003 1031 990 1004 1001 b 899 975 946 1004 919 993 l 889 967 b 564 1076 796 1038 682 1076 b 32 544 269 1076 32 839 b 108 268 32 446 58 351 b 75 197 89 249 76 224 b 101 119 72 168 82 140 b 175 85 119 99 146 86 b 251 113 203 85 231 94 b 564 11 342 47 451 11 b 1097 544 858 11 1097 250 b 1028 807 1097 638 1074 728 z m 325 544 b 564 783 325 676 432 783 b 663 764 599 783 632 776 l 336 471 b 325 544 328 494 325 519 z m 564 304 b 482 319 536 304 508 310 l 797 601 b 804 544 803 583 804 564 b 564 304 804 411 697 304 z "},"Ù":{"ha":867,"x_min":null,"x_max":null,"o":"m 419 1210 b 489 1168 433 1183 460 1168 l 508 1168 b 571 1197 533 1168 556 1178 b 588 1265 586 1217 592 1242 l 563 1376 b 483 1439 554 1414 522 1439 l 429 1439 b 361 1400 401 1439 375 1425 b 358 1321 346 1375 346 1346 z m 665 1076 b 519 931 585 1076 519 1011 l 519 393 b 433 307 519 332 493 307 b 347 393 388 307 347 349 l 347 931 b 200 1076 347 1011 281 1076 b 54 931 119 1076 54 1011 l 54 393 b 433 15 54 186 228 15 b 811 393 657 15 811 171 l 811 931 b 665 1076 811 1011 746 1076 z "},"Ú":{"ha":867,"x_min":null,"x_max":null,"o":"m 393 1168 l 413 1168 b 483 1210 442 1168 469 1183 l 543 1321 b 542 1400 557 1346 556 1375 b 472 1439 526 1425 501 1439 l 418 1439 b 340 1376 381 1439 349 1414 l 315 1265 b 331 1197 310 1242 315 1217 b 393 1168 346 1178 368 1168 z m 665 1076 b 519 931 585 1076 519 1011 l 519 393 b 433 307 519 332 493 307 b 347 393 388 307 347 349 l 347 931 b 200 1076 347 1011 281 1076 b 54 931 119 1076 54 1011 l 54 393 b 433 15 54 186 228 15 b 811 393 657 15 811 171 l 811 931 b 665 1076 811 1011 746 1076 z "},"Û":{"ha":867,"x_min":null,"x_max":null,"o":"m 304 1168 l 360 1168 b 417 1303 403 1168 417 1303 b 474 1168 417 1303 435 1168 l 524 1168 b 572 1265 583 1168 576 1242 l 547 1376 b 468 1439 539 1414 507 1439 l 365 1439 b 288 1376 328 1439 296 1414 l 263 1265 b 304 1168 251 1200 257 1168 z m 665 1076 b 519 931 585 1076 519 1011 l 519 393 b 433 307 519 332 493 307 b 347 393 388 307 347 349 l 347 931 b 200 1076 347 1011 281 1076 b 54 931 119 1076 54 1011 l 54 393 b 433 15 54 186 228 15 b 811 393 657 15 811 171 l 811 931 b 665 1076 811 1011 746 1076 z "},"Ü":{"ha":867,"x_min":null,"x_max":null,"o":"m 275 1168 b 415 1307 353 1168 415 1231 b 275 1447 415 1385 353 1447 b 136 1307 199 1447 136 1385 b 275 1168 136 1231 199 1168 z m 590 1168 b 731 1307 667 1168 731 1231 b 590 1447 731 1385 667 1447 b 450 1307 513 1447 450 1385 b 590 1168 450 1231 513 1168 z m 665 1076 b 519 931 585 1076 519 1011 l 519 393 b 433 307 519 332 493 307 b 347 393 388 307 347 349 l 347 931 b 200 1076 347 1011 281 1076 b 54 931 119 1076 54 1011 l 54 393 b 433 15 54 186 228 15 b 811 393 657 15 811 171 l 811 931 b 665 1076 811 1011 746 1076 z "},"Ý":{"ha":897,"x_min":null,"x_max":null,"o":"m 408 1168 l 428 1168 b 499 1210 457 1168 485 1183 l 558 1321 b 557 1400 572 1346 572 1375 b 489 1439 543 1425 517 1439 l 433 1439 b 356 1376 396 1439 364 1414 l 331 1265 b 346 1197 325 1242 331 1217 b 408 1168 361 1178 385 1168 z m 896 947 b 842 1046 892 986 872 1021 b 733 1075 811 1069 772 1081 b 636 1021 694 1071 660 1051 l 447 782 l 261 1021 b 164 1075 238 1051 203 1071 b 57 1046 125 1081 88 1069 b 1 949 25 1022 6 988 b 31 840 -4 910 7 871 l 301 494 l 301 161 b 447 15 301 81 367 15 b 593 161 528 15 593 81 l 593 493 l 865 840 b 896 947 890 871 900 908 z "},"ß":{"ha":847,"x_min":null,"x_max":null,"o":"m 692 569 b 725 714 715 611 728 661 b 454 964 717 856 596 964 l 426 964 b 61 599 225 964 61 800 l 61 32 b 161 -68 61 -24 106 -68 b 261 32 217 -68 261 -24 l 261 600 b 425 764 261 690 335 764 l 457 764 b 525 706 492 764 522 739 b 460 633 529 667 499 633 l 454 633 b 354 533 399 633 354 589 b 454 433 354 478 399 433 l 496 433 b 619 322 560 433 615 386 b 500 194 624 253 569 194 l 418 194 b 318 94 363 194 318 150 b 418 -4 318 40 363 -4 l 493 -4 b 819 317 669 -4 821 140 b 692 569 818 419 768 511 z "},"à":{"ha":844,"x_min":null,"x_max":null,"o":"m 357 890 b 428 847 371 864 399 847 l 447 847 b 510 878 472 847 494 858 b 525 944 525 897 531 921 l 500 1057 b 422 1119 492 1093 460 1119 l 368 1119 b 299 1081 339 1119 314 1104 b 297 1001 285 1056 283 1026 z m 647 781 b 553 743 611 781 578 767 b 407 772 507 763 457 772 b 28 392 199 772 28 601 b 407 13 28 183 199 13 b 560 44 460 13 511 24 b 647 13 583 24 615 13 b 788 151 725 13 788 75 l 788 642 b 647 781 788 718 725 781 z m 407 292 b 307 392 351 292 307 336 b 407 493 307 447 351 493 b 508 392 464 493 508 449 b 407 292 508 336 463 292 z "},"á":{"ha":844,"x_min":null,"x_max":null,"o":"m 410 847 l 429 847 b 499 890 458 847 485 864 l 560 1001 b 558 1081 572 1026 572 1056 b 489 1119 543 1104 518 1119 l 435 1119 b 356 1057 397 1119 364 1093 l 332 944 b 347 878 326 921 332 897 b 410 847 363 858 385 847 z m 647 781 b 553 743 611 781 578 767 b 407 772 507 763 457 772 b 28 392 199 772 28 601 b 407 13 28 183 199 13 b 560 44 460 13 511 24 b 647 13 583 24 615 13 b 788 151 725 13 788 75 l 788 642 b 647 781 788 718 725 781 z m 407 292 b 307 392 351 292 307 336 b 407 493 307 447 351 493 b 508 392 464 493 508 449 b 407 292 508 336 463 292 z "},"â":{"ha":844,"x_min":null,"x_max":null,"o":"m 296 847 l 351 847 b 408 983 394 847 408 983 b 465 847 408 983 426 847 l 515 847 b 563 944 575 847 568 921 l 538 1057 b 460 1119 529 1093 497 1119 l 357 1119 b 279 1057 319 1119 286 1093 l 254 944 b 296 847 242 881 249 847 z m 647 781 b 553 743 611 781 578 767 b 407 772 507 763 457 772 b 28 392 199 772 28 601 b 407 13 28 183 199 13 b 560 44 460 13 511 24 b 647 13 583 24 615 13 b 788 151 725 13 788 75 l 788 642 b 647 781 788 718 725 781 z m 407 292 b 307 392 351 292 307 336 b 407 493 307 447 351 493 b 508 392 464 493 508 449 b 407 292 508 336 463 292 z "},"ã":{"ha":844,"x_min":null,"x_max":null,"o":"m 286 844 l 290 843 l 296 843 b 369 893 336 843 357 872 b 471 854 399 867 436 853 b 599 982 544 857 596 922 b 518 1074 599 1031 569 1074 b 451 1033 481 1074 461 1053 b 360 1065 425 1056 394 1065 b 256 1019 321 1065 283 1049 b 217 919 229 990 214 953 b 286 844 219 881 246 853 z m 647 781 b 553 743 611 781 578 767 b 407 772 507 763 457 772 b 28 392 199 772 28 601 b 407 13 28 183 199 13 b 560 44 460 13 511 24 b 647 13 583 24 615 13 b 788 151 725 13 788 75 l 788 642 b 647 781 788 718 725 781 z m 407 292 b 307 392 351 292 307 336 b 407 493 307 447 351 493 b 508 392 464 493 508 449 b 407 292 508 336 463 292 z "},"ä":{"ha":844,"x_min":null,"x_max":null,"o":"m 275 847 b 415 988 353 847 415 911 b 275 1128 415 1065 353 1128 b 135 988 199 1128 135 1065 b 275 847 135 910 199 847 z m 590 847 b 731 988 667 847 731 911 b 590 1128 731 1065 667 1128 b 450 988 513 1128 450 1065 b 590 847 450 910 513 847 z m 647 781 b 553 743 611 781 578 767 b 407 772 507 763 457 772 b 28 392 199 772 28 601 b 407 13 28 183 199 13 b 560 44 460 13 511 24 b 647 13 583 24 615 13 b 788 151 725 13 788 75 l 788 642 b 647 781 788 718 725 781 z m 407 292 b 307 392 351 292 307 336 b 407 493 307 447 351 493 b 508 392 464 493 508 449 b 407 292 508 336 463 292 z "},"å":{"ha":844,"x_min":null,"x_max":null,"o":"m 413 838 b 567 990 497 838 567 906 b 413 1143 567 1075 497 1143 b 260 990 329 1143 260 1075 b 413 838 260 906 329 838 z m 413 1028 b 450 990 433 1028 450 1011 b 413 954 450 969 433 954 b 376 990 393 954 376 969 b 413 1028 376 1011 393 1028 z m 647 781 b 553 743 611 781 578 767 b 407 772 507 763 457 772 b 28 392 199 772 28 601 b 407 13 28 183 199 13 b 560 44 460 13 511 24 b 647 13 583 24 615 13 b 788 151 725 13 788 75 l 788 642 b 647 781 788 718 725 781 z m 407 292 b 307 392 351 292 307 336 b 407 493 307 447 351 493 b 508 392 464 493 508 449 b 407 292 508 336 463 292 z "},"æ":{"ha":1229,"x_min":null,"x_max":null,"o":"m 1201 443 b 888 763 1201 710 979 763 b 754 732 856 763 806 754 b 647 781 728 763 690 781 b 553 743 611 781 578 767 b 407 772 507 763 457 772 b 28 392 199 772 28 601 b 407 13 28 183 199 13 b 560 44 460 13 511 24 b 647 13 583 24 615 13 b 722 35 675 13 700 21 b 888 4 769 15 824 4 b 1139 188 1115 4 1139 139 b 888 282 1139 315 992 282 b 826 311 833 282 826 311 l 1004 311 b 1201 443 1147 311 1201 383 z m 806 450 b 893 532 806 450 804 532 b 981 450 978 532 981 450 z m 407 292 b 307 392 351 292 307 336 b 407 493 307 447 351 493 b 508 392 464 493 508 449 b 407 292 508 336 463 292 z "},"ç":{"ha":686,"x_min":null,"x_max":null,"o":"m 590 286 l 586 289 b 506 315 563 307 535 315 b 442 300 483 315 463 310 b 407 292 432 294 419 292 b 307 403 339 292 307 326 b 372 496 307 461 331 496 b 436 465 390 496 419 479 b 513 439 457 447 483 439 b 613 479 549 439 586 453 b 651 579 640 508 654 543 b 593 683 650 617 628 654 b 368 763 544 722 481 763 b 28 407 164 763 28 579 b 257 40 28 242 119 97 b 267 -33 251 15 254 -11 b 329 -83 281 -57 303 -75 b 382 -121 351 -89 388 -101 b 381 -125 381 -124 381 -125 b 326 -114 376 -126 360 -128 b 290 -106 315 -108 303 -106 b 250 -115 276 -106 264 -110 b 203 -175 226 -128 208 -149 b 251 -281 192 -217 213 -262 b 386 -312 283 -296 332 -312 b 567 -124 492 -312 567 -236 b 479 24 567 -46 522 -3 b 642 179 557 43 642 88 b 590 286 642 221 624 260 z "},"è":{"ha":750,"x_min":null,"x_max":null,"o":"m 319 890 b 389 847 333 864 360 847 l 408 847 b 471 878 433 847 456 858 b 486 944 486 897 492 921 l 463 1057 b 383 1119 454 1093 421 1119 l 329 1119 b 260 1081 300 1119 275 1104 b 258 1001 246 1056 244 1026 z m 721 443 b 408 763 721 710 500 763 b 29 367 304 763 29 669 b 408 4 29 196 143 4 b 660 188 636 4 660 139 b 408 282 660 315 513 282 b 347 311 354 282 347 311 l 525 311 b 721 443 667 311 721 383 z m 326 450 b 414 532 326 450 325 532 b 501 450 499 532 501 450 z "},"é":{"ha":750,"x_min":null,"x_max":null,"o":"m 336 847 l 356 847 b 425 890 385 847 411 864 l 486 1001 b 483 1081 499 1026 499 1056 b 415 1119 469 1104 443 1119 l 360 1119 b 282 1057 322 1119 290 1093 l 257 944 b 274 878 251 921 258 897 b 336 847 289 858 311 847 z m 721 443 b 408 763 721 710 500 763 b 29 367 304 763 29 669 b 408 4 29 196 143 4 b 660 188 636 4 660 139 b 408 282 660 315 513 282 b 347 311 354 282 347 311 l 525 311 b 721 443 667 311 721 383 z m 326 450 b 414 532 326 450 325 532 b 501 450 499 532 501 450 z "},"ê":{"ha":750,"x_min":null,"x_max":null,"o":"m 292 847 l 347 847 b 404 983 390 847 404 983 b 461 847 404 983 422 847 l 511 847 b 560 944 571 847 564 921 l 535 1057 b 456 1119 526 1093 494 1119 l 353 1119 b 275 1057 315 1119 283 1093 l 250 944 b 292 847 239 881 244 847 z m 721 443 b 408 763 721 710 500 763 b 29 367 304 763 29 669 b 408 4 29 196 143 4 b 660 188 636 4 660 139 b 408 282 660 315 513 282 b 347 311 354 282 347 311 l 525 311 b 721 443 667 311 721 383 z m 326 450 b 414 532 326 450 325 532 b 501 450 499 532 501 450 z "},"ë":{"ha":750,"x_min":null,"x_max":null,"o":"m 229 847 b 369 988 307 847 369 911 b 229 1128 369 1065 307 1128 b 89 988 151 1128 89 1065 b 229 847 89 910 151 847 z m 543 847 b 683 988 621 847 683 911 b 543 1128 683 1065 621 1128 b 404 988 467 1128 404 1065 b 543 847 404 910 467 847 z m 721 443 b 408 763 721 710 500 763 b 29 367 304 763 29 669 b 408 4 29 196 143 4 b 660 188 636 4 660 139 b 408 282 660 315 513 282 b 347 311 354 282 347 311 l 525 311 b 721 443 668 311 721 383 z m 326 450 b 414 532 326 450 325 532 b 501 450 499 532 501 450 z "},"ì":{"ha":390,"x_min":null,"x_max":null,"o":"m 144 890 b 215 847 158 864 186 847 l 235 847 b 297 878 260 847 282 858 b 313 944 313 897 318 921 l 288 1057 b 210 1119 279 1093 247 1119 l 156 1119 b 86 1081 126 1119 101 1104 b 85 1001 72 1056 71 1026 z m 194 757 b 56 617 118 757 56 694 l 56 151 b 194 13 56 75 118 13 b 335 151 272 13 335 75 l 335 617 b 194 757 335 694 272 757 z "},"í":{"ha":390,"x_min":null,"x_max":null,"o":"m 154 847 l 174 847 b 244 890 203 847 231 864 l 304 1001 b 303 1081 318 1026 318 1056 b 235 1119 289 1104 263 1119 l 179 1119 b 101 1057 142 1119 110 1093 l 76 944 b 92 878 71 921 76 897 b 154 847 107 858 131 847 z m 194 757 b 56 617 118 757 56 694 l 56 151 b 194 13 56 75 118 13 b 335 151 272 13 335 75 l 335 617 b 194 757 335 694 272 757 z "},"î":{"ha":390,"x_min":null,"x_max":null,"o":"m 349 944 l 324 1057 b 246 1119 315 1093 283 1119 l 143 1119 b 64 1057 106 1119 72 1093 l 40 944 b 82 847 28 881 35 847 l 138 847 b 194 983 181 847 194 983 b 251 847 194 983 213 847 l 301 847 b 349 944 360 847 354 921 z m 194 757 b 56 617 118 757 56 694 l 56 151 b 194 13 56 75 118 13 b 333 151 271 13 333 75 l 333 617 b 194 757 333 694 271 757 z "},"ï":{"ha":390,"x_min":null,"x_max":null,"o":"m 183 988 b 43 1128 183 1065 121 1128 b -97 988 -35 1128 -97 1065 b 43 847 -97 910 -35 847 b 183 988 121 847 183 911 z m 357 1128 b 217 988 281 1128 217 1065 b 357 847 217 910 281 847 b 497 988 435 847 497 910 b 357 1128 497 1065 435 1128 z m 194 757 b 56 617 118 757 56 694 l 56 151 b 194 13 56 75 118 13 b 335 151 272 13 335 75 l 335 617 b 194 757 335 694 272 757 z "},"ñ":{"ha":831,"x_min":null,"x_max":null,"o":"m 294 844 l 299 843 l 304 843 b 376 893 344 843 365 872 b 479 854 407 867 444 853 b 607 982 553 857 604 922 b 525 1074 607 1031 578 1074 b 458 1033 489 1074 469 1053 b 368 1065 433 1056 403 1065 b 264 1019 328 1065 292 1049 b 225 919 236 990 222 953 b 294 844 228 881 254 853 z m 788 342 b 688 656 788 472 753 578 b 435 772 622 731 533 772 b 283 740 383 772 331 761 b 194 772 258 760 228 772 b 56 632 118 772 56 710 l 56 151 b 194 13 56 75 118 13 b 335 151 272 13 335 75 l 335 392 b 435 493 335 447 379 493 b 510 338 490 493 510 413 l 510 151 b 649 13 510 75 572 13 b 788 151 725 13 788 75 z "},"ò":{"ha":815,"x_min":null,"x_max":null,"o":"m 368 890 b 439 847 382 864 410 847 l 458 847 b 521 878 483 847 506 858 b 536 944 536 897 542 921 l 511 1057 b 433 1119 503 1093 471 1119 l 379 1119 b 310 1081 350 1119 325 1104 b 308 1001 296 1056 294 1026 z m 407 772 b 28 392 199 772 28 601 b 407 13 28 183 199 13 b 788 392 617 13 788 183 b 407 772 788 600 618 772 z m 407 292 b 307 392 351 292 307 336 b 407 493 307 447 351 493 b 508 392 464 493 508 449 b 407 292 508 336 463 292 z "},"ó":{"ha":815,"x_min":null,"x_max":null,"o":"m 367 847 b 438 890 396 847 424 864 l 497 1001 b 496 1081 511 1026 510 1056 b 426 1119 481 1104 456 1119 l 372 1119 b 294 1057 335 1119 303 1093 l 269 944 b 285 878 264 921 269 897 b 347 847 300 858 322 847 z m 407 772 b 28 392 199 772 28 601 b 407 13 28 183 199 13 b 788 392 617 13 788 183 b 407 772 788 600 618 772 z m 407 292 b 307 392 351 292 307 336 b 407 493 307 447 351 493 b 508 392 464 493 508 449 b 407 292 508 336 463 292 z "},"ô":{"ha":815,"x_min":null,"x_max":null,"o":"m 294 847 l 350 847 b 407 983 393 847 407 983 b 464 847 407 983 425 847 l 514 847 b 563 944 574 847 567 921 l 538 1057 b 458 1119 529 1093 497 1119 l 356 1119 b 278 1057 318 1119 286 1093 l 253 944 b 294 847 242 881 247 847 z m 407 772 b 28 392 199 772 28 601 b 407 13 28 183 199 13 b 788 392 617 13 788 183 b 407 772 788 600 618 772 z m 407 292 b 307 392 351 292 307 336 b 407 493 307 447 351 493 b 508 392 464 493 508 449 b 407 292 508 336 463 292 z "},"õ":{"ha":815,"x_min":null,"x_max":null,"o":"m 286 844 l 290 843 l 296 843 b 369 893 336 843 357 872 b 471 854 399 867 436 853 b 599 982 544 857 596 922 b 518 1074 599 1031 569 1074 b 451 1033 481 1074 461 1053 b 360 1065 425 1056 394 1065 b 256 1019 321 1065 283 1049 b 217 919 229 990 214 953 b 286 844 219 881 246 853 z m 407 772 b 28 392 199 772 28 601 b 407 13 28 183 199 13 b 788 392 617 13 788 183 b 407 772 788 600 618 772 z m 407 292 b 307 392 351 292 307 336 b 407 493 307 447 351 493 b 508 392 464 493 508 449 b 407 292 508 336 463 292 z "},"ö":{"ha":815,"x_min":null,"x_max":null,"o":"m 250 847 b 390 988 328 847 390 911 b 250 1128 390 1065 328 1128 b 110 988 174 1128 110 1065 b 250 847 110 910 172 847 z m 565 847 b 704 988 642 847 704 911 b 565 1128 704 1065 642 1128 b 425 988 488 1128 425 1065 b 565 847 425 910 488 847 z m 407 772 b 28 392 199 772 28 601 b 407 13 28 183 199 13 b 788 392 617 13 788 183 b 407 772 788 600 618 772 z m 407 292 b 307 392 351 292 307 336 b 407 493 307 447 351 493 b 508 392 464 493 508 449 b 407 292 508 336 463 292 z "},"ø":{"ha":831,"x_min":null,"x_max":null,"o":"m 729 604 l 765 653 b 736 788 796 692 782 753 b 667 811 714 803 690 811 b 597 779 639 811 613 800 l 568 739 b 414 772 519 760 468 772 b 35 392 206 772 35 601 b 125 147 35 299 68 214 l 83 93 b 114 -43 54 53 67 -8 b 182 -67 135 -58 158 -67 b 251 -33 210 -67 236 -56 l 300 31 b 414 13 336 18 375 13 b 794 392 624 13 794 183 b 729 604 794 468 772 542 z m 414 292 b 314 392 358 292 314 336 b 414 493 314 447 358 493 b 515 392 471 493 515 449 b 414 292 515 336 469 292 z "},"ù":{"ha":831,"x_min":null,"x_max":null,"o":"m 358 890 b 428 847 372 864 399 847 l 447 847 b 510 878 472 847 494 858 b 525 944 525 897 531 921 l 501 1057 b 422 1119 493 1093 461 1119 l 368 1119 b 300 1081 339 1119 314 1104 b 297 1001 285 1056 285 1026 z m 635 772 b 496 632 558 772 496 710 l 496 392 b 394 292 496 336 450 292 b 321 447 340 292 321 372 l 321 632 b 181 772 321 710 258 772 b 42 632 104 772 42 710 l 42 442 b 143 129 43 311 76 206 b 394 13 207 54 296 13 b 546 44 447 13 499 24 b 635 13 571 24 601 13 b 774 151 711 13 774 75 l 774 632 b 635 772 774 710 711 772 z "},"ú":{"ha":831,"x_min":null,"x_max":null,"o":"m 378 847 l 397 847 b 468 890 426 847 454 864 l 528 1001 b 526 1081 542 1026 540 1056 b 457 1119 511 1104 486 1119 l 403 1119 b 325 1057 365 1119 333 1093 l 300 944 b 315 878 294 921 300 897 b 378 847 331 858 353 847 z m 635 772 b 496 632 558 772 496 710 l 496 392 b 394 292 496 336 450 292 b 321 447 340 292 321 372 l 321 632 b 181 772 321 710 258 772 b 42 632 104 772 42 710 l 42 442 b 143 129 43 311 76 206 b 394 13 207 54 296 13 b 546 44 447 13 499 24 b 635 13 571 24 601 13 b 774 151 711 13 774 75 l 774 632 b 635 772 774 710 711 772 z "},"û":{"ha":831,"x_min":null,"x_max":null,"o":"m 286 847 l 342 847 b 399 983 385 847 399 983 b 456 847 399 983 417 847 l 506 847 b 554 944 565 847 558 921 l 529 1057 b 450 1119 521 1093 489 1119 l 347 1119 b 269 1057 310 1119 278 1093 l 244 944 b 286 847 233 881 239 847 z m 635 772 b 496 632 558 772 496 710 l 496 392 b 394 292 496 336 450 292 b 321 447 340 292 321 372 l 321 632 b 181 772 321 710 258 772 b 42 632 104 772 42 710 l 42 442 b 143 129 43 311 76 206 b 394 13 207 54 296 13 b 546 44 447 13 499 24 b 635 13 571 24 601 13 b 774 151 711 13 774 75 l 774 632 b 635 772 774 710 711 772 z "},"ü":{"ha":831,"x_min":null,"x_max":null,"o":"m 250 847 b 390 988 328 847 390 911 b 250 1128 390 1065 328 1128 b 110 988 174 1128 110 1065 b 250 847 110 910 174 847 z m 565 847 b 706 988 642 847 706 911 b 565 1128 706 1065 642 1128 b 425 988 488 1128 425 1065 b 565 847 425 910 488 847 z m 635 772 b 496 632 558 772 496 710 l 496 392 b 394 292 496 336 450 292 b 321 447 340 292 321 372 l 321 632 b 181 772 321 710 258 772 b 42 632 104 772 42 710 l 42 442 b 143 129 43 311 76 206 b 394 13 207 54 296 13 b 546 44 447 13 499 24 b 635 13 571 24 601 13 b 774 151 711 13 774 75 l 774 632 b 635 772 774 710 711 772 z "},"ý":{"ha":833,"x_min":null,"x_max":null,"o":"m 367 847 l 386 847 b 457 890 415 847 443 864 l 517 1001 b 515 1081 531 1026 529 1056 b 446 1119 500 1104 475 1119 l 392 1119 b 314 1057 354 1119 322 1093 l 289 944 b 304 878 283 921 289 897 b 367 847 319 858 342 847 z m 772 629 b 638 772 772 706 713 769 b 494 632 558 772 494 713 l 494 392 b 393 292 493 336 449 292 b 319 447 339 292 319 372 l 319 629 b 183 772 319 706 258 769 b 40 632 104 772 40 711 l 40 442 b 142 129 42 311 75 206 b 393 13 206 54 294 13 b 490 25 426 13 458 17 b 393 -57 475 -32 456 -57 b 332 -39 365 -57 344 -50 b 213 -4 300 -8 256 4 l 210 -4 b 106 -97 161 -14 121 -50 b 139 -232 92 -146 104 -197 b 393 -335 204 -300 292 -335 b 663 -229 501 -335 594 -299 b 772 64 771 -118 774 35 z "},"ÿ":{"ha":833,"x_min":null,"x_max":null,"o":"m 249 847 b 389 988 326 847 389 911 b 249 1128 389 1065 326 1128 b 108 988 172 1128 108 1065 b 249 847 108 910 172 847 z m 564 847 b 704 988 642 847 704 911 b 564 1128 704 1065 642 1128 b 424 988 486 1128 424 1065 b 564 847 424 910 486 847 z m 772 629 b 638 772 772 706 713 769 b 494 632 558 772 494 713 l 494 392 b 393 292 493 336 449 292 b 319 447 339 292 319 372 l 319 629 b 183 772 319 706 258 769 b 40 632 104 772 40 711 l 40 442 b 142 129 42 311 75 206 b 393 13 206 54 294 13 b 490 25 426 13 458 17 b 393 -57 475 -32 456 -57 b 332 -39 365 -57 344 -50 b 213 -4 300 -8 256 4 l 210 -4 b 106 -97 161 -14 121 -50 b 139 -232 92 -146 104 -197 b 393 -335 204 -300 292 -335 b 663 -229 501 -335 594 -299 b 772 64 771 -118 774 35 z "},"ı":{"ha":390,"x_min":null,"x_max":null,"o":"m 194 757 b 56 617 118 757 56 694 l 56 151 b 194 13 56 75 118 13 b 335 151 272 13 335 75 l 335 617 b 194 757 335 694 272 757 z "},"Œ":{"ha":1638,"x_min":null,"x_max":null,"o":"m 1461 307 l 1090 307 l 1090 400 l 1343 400 b 1489 546 1424 400 1489 465 b 1343 692 1489 626 1424 692 l 1090 692 l 1090 783 l 1461 783 b 1607 931 1542 783 1607 850 b 1461 1076 1607 1011 1542 1076 l 986 1076 b 833 999 924 1076 868 1047 b 557 1076 750 1050 654 1076 b 25 544 263 1076 25 839 b 557 11 25 251 263 11 b 821 81 651 11 742 35 b 944 15 847 42 893 15 l 1461 15 b 1607 161 1542 15 1607 81 b 1461 307 1607 242 1542 307 z m 557 304 b 318 544 425 304 318 411 b 557 783 318 676 425 783 b 797 544 690 783 797 678 b 557 304 797 411 690 304 z "},"œ":{"ha":1239,"x_min":null,"x_max":null,"o":"m 1210 443 b 897 763 1210 710 989 763 b 663 674 843 763 746 738 b 407 772 593 736 503 772 b 28 392 199 772 28 601 b 407 13 28 183 199 13 b 639 92 494 13 574 42 b 896 4 699 38 785 4 b 1147 188 1124 4 1147 139 b 897 282 1147 315 1001 282 b 836 311 843 282 836 311 l 1013 311 b 1210 443 1156 311 1210 383 z m 815 450 b 903 532 815 450 813 532 b 990 450 986 532 990 450 z m 407 292 b 307 392 351 292 307 336 b 407 493 307 447 351 493 b 508 392 464 493 508 449 b 407 292 508 336 463 292 z "},"Š":{"ha":946,"x_min":null,"x_max":null,"o":"m 350 1231 b 428 1168 357 1193 390 1168 l 531 1168 b 608 1231 568 1168 600 1193 l 633 1342 b 592 1439 644 1407 639 1439 l 536 1439 b 479 1303 493 1439 479 1303 b 422 1439 479 1303 461 1439 l 372 1439 b 325 1342 313 1439 319 1365 z m 326 725 b 439 786 326 783 421 786 b 703 694 549 786 589 694 l 706 694 b 808 790 756 707 793 743 b 781 929 825 839 814 890 b 439 1078 721 997 614 1078 b 33 725 200 1078 33 933 b 633 353 33 356 633 519 b 474 306 633 299 529 306 b 183 438 250 306 318 438 b 65 268 93 438 49 340 b 474 14 69 250 128 14 b 926 339 869 14 926 267 b 326 725 926 775 326 532 z "},"š":{"ha":771,"x_min":null,"x_max":null,"o":"m 260 910 b 338 847 268 874 300 847 l 442 847 b 519 910 479 847 511 874 l 544 1022 b 501 1119 556 1086 550 1119 l 447 1119 b 390 983 404 1119 390 983 b 332 1119 390 983 372 1119 l 283 1119 b 235 1022 224 1119 229 1046 z m 268 526 b 358 572 268 569 343 572 b 568 503 446 572 478 503 l 571 504 b 653 575 610 513 640 539 b 631 678 665 611 657 650 b 358 790 583 729 497 790 b 35 526 168 790 35 682 b 514 249 35 250 514 372 b 386 213 514 207 431 213 b 154 311 207 213 261 311 b 60 185 82 311 47 239 b 386 -6 64 171 110 -6 b 746 238 701 -6 746 183 b 268 526 746 564 268 382 z "},"Ÿ":{"ha":897,"x_min":null,"x_max":null,"o":"m 292 1168 b 432 1307 368 1168 432 1231 b 292 1447 432 1385 368 1447 b 151 1307 214 1447 151 1385 b 292 1168 151 1231 214 1168 z m 606 1168 b 746 1307 683 1168 746 1231 b 606 1447 746 1385 683 1447 b 465 1307 528 1447 465 1385 b 606 1168 465 1231 528 1168 z m 842 1046 b 751 1076 815 1067 782 1076 b 636 1021 708 1076 665 1058 l 447 782 l 261 1021 b 146 1076 233 1057 189 1076 b 57 1046 114 1076 83 1067 b 31 840 -7 996 -18 904 l 301 494 l 301 161 b 447 15 301 81 367 15 b 593 161 528 15 593 81 l 593 493 l 865 840 b 842 1046 915 903 904 996 z "},"ž":{"ha":767,"x_min":null,"x_max":null,"o":"m 250 910 b 328 847 258 874 290 847 l 432 847 b 510 910 469 847 501 874 l 535 1022 b 519 1089 540 1046 535 1069 b 457 1119 504 1108 481 1119 l 438 1119 b 379 1096 415 1119 394 1110 b 322 1119 365 1110 344 1119 l 303 1119 b 240 1089 279 1119 256 1108 b 225 1022 225 1069 219 1046 z m 593 292 l 490 292 l 701 546 b 703 549 703 547 703 547 l 707 553 b 708 554 707 553 708 554 l 710 556 b 713 561 710 557 711 560 l 714 564 b 717 569 714 564 717 569 l 725 588 l 681 603 l 725 589 l 728 597 b 728 601 728 599 728 600 l 731 611 l 731 619 b 732 632 732 624 732 628 l 732 639 l 731 646 l 731 653 b 731 654 731 653 731 654 l 729 656 b 729 657 729 657 729 657 l 728 665 b 726 671 728 668 726 669 l 724 678 b 722 682 724 679 724 682 l 711 706 b 710 707 711 706 711 707 l 710 708 b 708 710 708 710 708 710 l 707 711 b 704 717 706 713 706 714 l 699 722 b 696 725 699 724 697 725 l 694 728 b 692 731 693 728 692 729 l 679 742 b 669 749 676 743 674 746 l 668 749 b 664 751 667 750 665 751 l 656 757 l 626 768 b 624 768 626 768 625 768 l 614 771 l 607 771 b 593 772 601 771 597 772 l 167 772 b 28 632 90 772 28 710 b 167 493 28 556 90 493 l 296 493 l 83 238 l 83 236 b 78 229 81 233 79 232 l 78 228 b 75 224 76 226 75 225 l 74 222 b 71 217 72 221 72 219 l 63 196 l 106 182 l 61 194 l 61 193 b 60 189 60 192 60 190 l 56 172 l 56 165 b 54 151 54 161 54 157 l 54 144 l 56 142 l 56 132 b 56 131 56 132 56 132 l 57 129 b 57 128 57 129 57 128 l 58 118 b 58 117 58 118 58 118 l 60 115 b 60 114 60 115 60 114 l 63 106 b 63 104 63 106 63 106 l 64 103 b 64 101 64 103 64 101 l 75 79 b 78 75 76 78 78 75 l 79 74 b 82 69 79 72 81 71 l 83 68 b 86 64 83 67 85 65 l 88 63 b 90 58 88 61 89 60 l 100 49 b 103 46 101 47 103 47 l 113 39 l 139 76 l 114 38 l 118 35 b 121 33 118 35 119 33 l 140 24 b 142 22 140 24 142 24 l 143 22 b 144 21 144 21 144 21 l 146 21 b 147 21 146 21 147 21 l 150 19 b 151 19 150 19 151 19 l 153 18 b 158 17 154 18 157 18 l 160 17 b 165 15 163 17 164 15 l 174 14 b 178 14 175 14 176 14 l 181 13 l 593 13 b 732 151 669 13 732 75 b 593 292 732 229 669 292 z "},"–":{"ha":854,"x_min":null,"x_max":null,"o":"m 704 458 l 150 458 b 44 354 92 458 44 411 b 150 249 44 296 92 249 l 704 249 b 810 354 763 249 810 296 b 704 458 810 411 763 458 z "},"—":{"ha":1100,"x_min":null,"x_max":null,"o":"m 950 458 l 150 458 b 44 354 92 458 44 411 b 150 249 44 296 92 249 l 950 249 b 1054 354 1007 249 1054 296 b 950 458 1054 411 1007 458 z "},"‘":{"ha":376,"x_min":null,"x_max":null,"o":"m 233 965 b 228 1000 235 976 233 989 b 176 1039 218 1021 200 1036 b 118 1014 154 1040 132 1032 b 49 832 92 981 49 913 b 189 692 49 754 111 692 b 329 832 267 692 329 754 b 233 965 329 894 289 946 z "},"’":{"ha":376,"x_min":null,"x_max":null,"o":"m 188 1039 b 47 899 110 1039 47 976 b 143 765 47 836 88 785 b 149 731 142 754 143 742 b 200 693 157 710 176 696 b 207 692 201 692 204 692 b 328 899 282 692 328 843 b 188 1039 328 976 265 1039 z "},"“":{"ha":682,"x_min":null,"x_max":null,"o":"m 539 965 b 533 1000 540 976 539 989 b 482 1039 525 1021 506 1036 b 424 1014 460 1042 438 1032 b 354 832 399 981 354 913 b 494 692 354 754 417 692 b 635 832 572 692 635 754 b 539 965 635 894 594 946 z m 233 965 b 228 1000 235 976 233 989 b 176 1039 218 1021 200 1036 b 118 1014 154 1040 132 1032 b 49 832 92 981 49 913 b 189 692 49 754 111 692 b 329 832 267 692 329 754 b 233 965 329 894 289 946 z "},"”":{"ha":682,"x_min":null,"x_max":null,"o":"m 493 1039 b 353 899 415 1039 353 976 b 449 765 353 836 393 785 b 454 731 447 754 449 742 b 506 693 463 710 482 696 b 513 692 508 692 510 692 b 564 717 533 692 551 701 b 633 899 589 750 633 818 b 493 1039 633 976 571 1039 z m 188 1039 b 47 899 110 1039 47 976 b 143 765 47 836 88 785 b 149 731 142 754 143 742 b 200 693 157 710 176 696 b 207 692 201 692 204 692 b 328 899 282 692 328 843 b 188 1039 328 976 265 1039 z "},"„":{"ha":685,"x_min":null,"x_max":null,"o":"m 186 257 b 46 118 108 257 46 194 b 142 -15 46 56 86 3 b 147 -51 140 -28 142 -40 b 199 -89 156 -72 175 -86 b 257 -64 222 -89 242 -83 b 326 118 282 -31 326 38 b 186 257 326 194 264 257 z m 497 257 b 357 118 421 257 357 194 b 453 -15 357 56 397 3 b 458 -51 451 -28 453 -40 b 510 -89 468 -72 486 -86 b 568 -64 535 -89 553 -85 b 638 118 594 -31 638 38 b 497 257 638 194 575 257 z "},"†":{"ha":608,"x_min":null,"x_max":null,"o":"m 465 828 l 410 828 l 410 938 b 304 1043 410 996 363 1043 b 199 938 246 1043 199 996 l 199 828 l 143 828 b 38 722 85 828 38 781 b 143 617 38 664 85 617 l 199 617 l 199 82 b 304 -22 199 25 246 -22 b 410 82 363 -22 410 25 l 410 617 l 465 617 b 571 722 524 617 571 664 b 465 828 571 781 524 828 z "},"•":{"ha":474,"x_min":null,"x_max":null,"o":"m 236 554 b 49 367 133 554 49 469 b 236 178 49 263 133 178 b 425 367 340 178 425 263 b 236 554 425 469 340 554 z "},"…":{"ha":994,"x_min":null,"x_max":null,"o":"m 186 257 b 46 118 108 257 46 194 b 186 -22 46 40 108 -22 b 326 118 264 -22 326 40 b 186 257 326 194 264 257 z m 497 257 b 357 117 419 257 357 194 b 497 -22 357 40 419 -22 b 638 117 574 -22 638 40 b 497 257 638 194 574 257 z m 807 257 b 667 117 731 257 667 194 b 807 -22 667 40 731 -22 b 947 117 885 -22 947 40 b 807 257 947 194 885 257 z "},"‰":{"ha":2343,"x_min":null,"x_max":null,"o":"m 1025 1060 b 986 1067 1013 1064 999 1067 b 889 1000 943 1067 904 1040 l 542 146 l 542 144 b 543 64 532 118 532 90 b 640 1 561 25 599 1 b 682 11 654 1 669 4 b 738 68 708 22 728 43 l 1085 924 b 1025 1060 1106 978 1079 1039 z m 700 739 b 374 1067 700 918 556 1067 b 46 739 192 1067 46 921 b 374 413 46 558 193 413 b 700 739 554 413 700 558 z m 374 621 b 254 739 307 621 254 674 b 374 858 254 806 307 858 b 492 739 467 858 492 764 b 374 621 492 674 439 621 z m 1260 665 b 932 338 1079 665 932 519 b 1260 11 932 157 1079 11 b 1588 338 1440 11 1588 157 b 1260 665 1588 517 1440 665 z m 1969 665 b 1642 338 1789 665 1642 519 b 1969 11 1642 157 1789 11 b 2297 338 2150 11 2297 157 b 1969 665 2297 517 2150 665 z m 1260 219 b 1140 338 1194 219 1140 272 b 1260 457 1140 404 1194 457 b 1379 338 1325 457 1379 403 b 1260 219 1379 272 1325 219 z m 1969 219 b 1850 338 1904 219 1850 272 b 1969 457 1850 404 1904 457 b 2089 338 2035 457 2089 403 b 1969 219 2089 272 2035 219 z "},"‹":{"ha":621,"x_min":null,"x_max":null,"o":"m 521 381 l 336 506 l 521 629 b 549 775 568 661 581 728 b 461 822 529 806 494 822 b 403 804 440 822 421 817 l 90 594 b 44 506 61 574 44 542 b 90 417 44 469 61 436 l 403 206 b 461 189 421 194 440 189 b 549 235 494 189 528 204 b 521 381 581 283 568 349 z "},"›":{"ha":621,"x_min":null,"x_max":null,"o":"m 531 594 l 218 804 b 160 822 200 817 181 822 b 72 775 126 822 92 806 b 100 629 40 728 53 661 l 285 506 l 100 381 b 72 235 53 349 40 283 b 160 189 93 204 126 189 b 218 206 181 189 200 194 l 531 417 b 576 506 560 436 576 469 b 531 594 576 540 560 574 z "},"€":{"ha":1158,"x_min":null,"x_max":null,"o":"m 1054 379 b 949 415 1025 404 988 418 b 847 365 908 413 874 394 b 707 297 799 310 772 297 b 625 311 678 297 650 303 b 733 417 686 317 733 363 b 613 522 733 475 679 522 l 468 522 b 468 525 468 524 468 525 l 467 533 b 467 536 467 533 467 535 b 468 554 467 543 468 549 l 613 554 b 733 660 679 554 733 601 b 629 764 733 713 688 756 b 707 776 653 772 679 776 b 842 721 747 776 778 772 b 933 688 868 699 901 688 b 1047 743 976 688 1019 707 b 1026 949 1099 806 1089 897 b 707 1069 921 1033 826 1069 b 225 764 499 1069 314 950 l 169 764 b 49 660 103 764 49 717 b 169 554 49 601 103 554 l 175 554 l 175 522 l 169 522 b 49 417 103 522 49 475 b 169 311 49 358 103 311 l 225 311 b 707 4 310 124 503 4 b 1067 172 861 4 965 58 b 1054 379 1121 233 1114 325 z "},"≠":{"ha":704,"x_min":null,"x_max":null,"o":"m 456 514 l 467 556 l 544 556 b 649 661 601 556 649 603 b 544 767 649 719 601 767 l 525 767 l 538 811 b 464 942 553 868 521 926 b 335 868 408 957 350 924 l 307 767 l 160 767 b 54 661 101 767 54 719 b 160 556 54 603 101 556 l 249 556 l 236 514 l 160 514 b 54 408 101 514 54 467 b 160 303 54 351 101 303 l 178 303 l 165 257 b 239 128 150 201 183 143 b 368 201 294 113 353 146 l 397 303 l 544 303 b 649 408 601 303 649 350 b 544 514 649 467 601 514 z "},"≤":{"ha":861,"x_min":null,"x_max":null,"o":"m 754 504 l 392 629 l 754 753 b 782 899 801 785 815 851 b 694 946 763 929 729 946 b 636 928 675 946 654 940 l 147 718 b 101 629 118 697 100 664 b 147 539 100 593 118 560 l 636 329 b 694 311 654 318 675 311 b 782 358 729 311 763 328 b 754 504 815 407 801 472 z m 694 211 l 151 211 b 46 106 93 211 46 164 b 151 0 46 47 93 0 l 694 0 b 800 106 753 0 800 47 b 694 211 800 164 753 211 z "},"≥":{"ha":860,"x_min":null,"x_max":null,"o":"m 101 358 b 189 311 121 328 154 311 b 247 329 208 311 229 318 l 736 539 b 782 629 765 560 783 593 b 736 718 783 664 765 697 l 247 928 b 189 946 229 940 208 946 b 101 899 154 946 121 929 b 129 753 68 851 82 785 l 490 629 l 129 504 b 101 358 82 472 68 407 z m 704 211 l 161 211 b 56 106 103 211 56 164 b 161 0 56 47 103 0 l 704 0 b 810 106 763 0 810 47 b 704 211 810 164 763 211 z "},"ﬀ":{"ha":997,"x_min":null,"x_max":null,"o":"m 874 725 b 1014 864 951 725 1014 788 b 874 1003 1014 940 951 1003 b 618 907 761 1003 675 971 b 485 1003 600 963 547 1003 b 151 710 290 1003 167 901 l 117 710 b 11 604 58 710 11 663 b 117 499 11 546 58 499 l 149 499 l 149 139 b 288 0 149 63 211 0 b 428 139 365 0 428 63 l 428 499 l 538 499 l 538 139 b 678 0 538 63 600 0 b 817 139 754 0 817 63 l 817 499 l 882 499 b 988 604 939 499 988 546 b 882 710 988 663 940 710 l 821 710 b 824 718 822 714 822 717 b 874 725 829 721 844 725 z m 435 718 b 485 725 439 721 456 725 b 543 738 506 725 525 729 b 542 731 543 735 543 733 l 542 717 b 540 710 540 714 540 713 l 432 710 b 435 718 433 714 433 717 z "},"ﬁ":{"ha":807,"x_min":null,"x_max":null,"o":"m 610 710 l 432 710 b 435 718 433 714 433 717 b 485 725 439 721 456 725 b 624 864 561 725 624 788 b 485 1003 624 940 561 1003 b 151 710 290 1003 167 901 l 117 710 b 11 604 58 710 11 663 b 117 499 11 546 58 499 l 149 499 l 149 139 b 288 0 149 63 211 0 b 428 139 365 0 428 63 l 428 499 l 474 499 l 474 139 b 613 0 474 63 536 0 b 751 139 689 0 751 63 l 751 569 b 610 710 751 692 664 710 z "},"ﬃ":{"ha":1196,"x_min":null,"x_max":null,"o":"m 1000 710 l 821 710 b 824 718 822 714 822 717 b 874 725 829 721 844 725 b 1014 864 951 725 1014 788 b 874 1003 1014 940 951 1003 b 618 907 761 1003 675 971 b 485 1003 600 963 547 1003 b 151 710 290 1003 167 901 l 117 710 b 11 604 58 710 11 663 b 117 499 11 546 58 499 l 149 499 l 149 139 b 288 0 149 63 211 0 b 428 139 365 0 428 63 l 428 499 l 538 499 l 538 139 b 678 0 538 63 600 0 b 817 139 754 0 817 63 l 817 499 l 863 499 l 863 139 b 1001 0 863 63 925 0 b 1142 139 1079 0 1142 63 l 1142 569 b 1000 710 1142 654 1085 710 z m 435 718 b 485 725 439 721 456 725 b 543 738 506 725 525 729 b 542 731 543 735 543 733 l 542 717 b 540 710 540 714 540 713 l 432 710 b 435 718 433 714 433 717 z "},"⁄":{"ha":618,"x_min":null,"x_max":null,"o":"m 518 1032 b 481 1039 506 1036 493 1039 b 382 972 439 1039 399 1013 l 35 117 b 38 36 25 90 25 61 b 96 -19 49 10 69 -10 b 133 -26 107 -25 121 -26 b 231 40 178 -26 215 -1 l 578 896 b 518 1032 599 950 572 1011 z "},"ƒ":{"ha":608,"x_min":null,"x_max":null,"o":"m 492 708 l 432 708 b 435 717 433 713 433 715 b 485 724 439 719 456 724 b 624 863 561 724 624 786 b 485 1003 624 940 561 1003 b 151 708 290 1003 167 901 l 117 708 b 11 603 58 708 11 661 b 117 497 11 544 58 497 l 149 497 l 149 138 b 288 -1 149 61 211 -1 b 428 138 365 -1 428 61 l 428 497 l 492 497 b 597 603 550 497 597 544 b 492 708 597 661 550 708 z "},"þ":{"ha":860,"x_min":null,"x_max":null,"o":"m 439 757 b 339 743 406 757 371 751 l 339 918 b 199 1058 339 996 276 1058 b 60 918 122 1058 60 996 l 60 -164 b 199 -303 60 -240 122 -303 b 339 -164 276 -303 339 -240 l 339 13 b 460 -3 381 3 425 -3 b 819 376 599 -3 819 100 b 439 757 819 586 649 757 z m 450 276 b 339 376 386 276 339 319 b 439 478 339 432 383 478 b 540 376 494 478 540 432 b 450 276 540 303 485 276 z "},"÷":{"ha":811,"x_min":null,"x_max":null,"o":"m 415 475 b 556 615 493 475 556 538 b 415 756 556 693 493 756 b 275 615 338 756 275 693 b 415 475 275 538 338 475 z m 683 471 l 129 471 b 24 365 71 471 24 424 b 129 261 24 308 71 261 l 683 261 b 789 365 742 261 789 308 b 683 471 789 424 742 471 z m 415 257 b 275 117 338 257 275 194 b 415 -22 275 40 338 -22 b 556 117 493 -22 556 40 b 415 257 556 194 493 257 z "},"−":{"ha":854,"x_min":null,"x_max":null,"o":"m 704 458 l 150 458 b 44 354 92 458 44 411 b 150 249 44 296 92 249 l 704 249 b 810 354 763 249 810 296 b 704 458 810 411 763 458 z "},"‚":{"ha":381,"x_min":null,"x_max":null,"o":"m 186 257 b 46 118 108 257 46 194 b 142 -15 46 56 86 3 b 147 -51 140 -28 142 -40 b 199 -89 156 -72 175 -86 b 257 -64 222 -89 242 -83 b 326 118 282 -31 326 38 b 186 257 326 194 264 257 z "},"™":{"ha":904,"x_min":null,"x_max":null,"o":"m 278 942 l 342 942 b 401 1001 375 942 401 969 b 342 1061 401 1035 375 1061 l 94 1061 b 35 1001 61 1061 35 1035 b 94 942 35 969 61 942 l 158 942 l 158 688 b 218 628 158 656 185 628 b 278 688 251 628 278 656 z m 790 1061 b 736 1028 760 1061 742 1039 l 639 825 l 542 1028 b 486 1061 533 1044 515 1061 b 428 1001 461 1061 428 1039 l 428 688 b 488 629 429 649 458 629 b 547 688 515 629 546 649 l 547 768 b 586 661 574 697 585 664 b 639 628 596 642 617 628 b 642 629 640 628 640 628 b 693 661 664 629 683 642 b 731 769 696 667 708 700 l 731 688 b 789 629 732 649 761 629 l 790 629 b 849 688 818 629 847 649 l 849 1001 b 790 1061 849 1039 819 1061 z "},"¦":{"ha":353,"x_min":null,"x_max":null,"o":"m 175 1039 b 69 933 117 1039 69 992 l 69 535 b 175 429 69 476 117 429 b 281 535 233 429 281 476 l 281 933 b 175 1039 281 992 233 1039 z m 176 338 b 71 232 118 338 71 290 l 71 -69 b 176 -174 71 -126 118 -174 b 282 -69 235 -174 282 -126 l 282 232 b 176 338 282 290 235 338 z "},"Ð":{"ha":1042,"x_min":null,"x_max":null,"o":"m 1013 531 b 539 1061 1013 817 842 1061 l 350 1061 b 181 892 257 1061 181 985 l 181 636 l 144 636 b 39 531 86 636 39 589 b 144 425 39 472 86 425 l 181 425 l 181 113 b 293 0 181 50 231 0 l 490 0 b 813 103 567 0 711 26 b 1013 531 904 171 1013 300 z m 719 531 b 638 338 719 442 693 378 b 490 293 589 301 506 293 l 474 293 l 474 425 l 521 425 b 625 531 578 425 625 472 b 521 636 625 589 578 636 l 474 636 l 474 769 l 539 769 b 719 531 593 769 719 746 z "},"Đ":{"ha":926,"x_min":null,"x_max":null,"o":"m 897 531 b 424 1061 897 817 726 1061 l 235 1061 b 65 892 142 1061 65 985 l 65 636 l 29 636 b -76 531 -29 636 -76 589 b 29 425 -76 472 -29 425 l 65 425 l 65 113 b 178 0 65 50 115 0 l 375 0 b 697 103 451 0 596 26 b 897 531 789 171 897 300 z m 604 531 b 522 338 604 442 578 378 b 375 293 474 301 390 293 l 358 293 l 358 425 l 406 425 b 510 531 463 425 510 472 b 406 636 510 589 463 636 l 358 636 l 358 769 l 424 769 b 604 531 478 769 604 746 z "},"Ł":{"ha":911,"x_min":null,"x_max":null,"o":"m 767 293 l 396 293 l 396 457 l 678 457 b 783 561 736 457 783 504 b 678 667 783 619 736 667 l 396 667 l 396 915 b 249 1061 396 996 329 1061 b 103 915 168 1061 103 996 l 103 665 b 18 561 54 656 18 613 b 103 458 18 511 54 468 l 103 189 b 292 0 103 85 188 0 l 767 0 b 913 146 847 0 913 65 b 767 293 913 226 847 293 z "},"ł":{"ha":804,"x_min":null,"x_max":null,"o":"m 399 1058 b 260 918 322 1058 260 996 l 260 604 l 122 604 b 17 500 64 604 17 557 b 122 394 17 442 64 394 l 260 394 l 260 138 b 399 -1 260 61 322 -1 b 539 138 476 -1 539 61 l 539 394 l 676 394 b 782 500 735 394 782 442 b 676 604 782 557 735 604 l 539 604 l 539 918 b 399 1058 539 996 476 1058 z "},"đ":{"ha":885,"x_min":null,"x_max":null,"o":"m 647 1058 b 524 983 594 1058 547 1028 l 375 983 b 269 879 317 983 269 936 b 375 774 269 821 317 774 l 508 774 l 508 744 b 407 758 476 753 442 758 b 28 378 250 758 28 640 b 407 -1 28 169 199 -1 b 560 31 460 -1 511 10 b 647 -1 583 10 615 -1 b 788 138 725 -1 788 61 l 788 781 b 857 879 828 794 857 833 b 772 981 857 929 821 971 b 647 1058 750 1026 703 1058 z m 407 278 b 307 378 351 278 307 322 b 407 479 307 433 350 479 b 508 378 463 479 508 433 b 407 278 508 322 463 278 z "},"Þ":{"ha":943,"x_min":null,"x_max":null,"o":"m 551 938 l 357 938 b 211 1069 350 1011 288 1069 b 65 924 131 1069 65 1004 l 65 146 b 211 0 65 65 131 0 b 358 146 292 0 358 65 l 358 206 l 551 206 b 917 572 753 206 917 369 b 551 938 917 774 753 938 z m 624 572 b 551 499 624 532 592 499 l 358 499 l 358 644 l 551 644 b 624 572 592 644 624 611 z "}}}
